<svg xmlns="http://www.w3.org/2000/svg" version="1.1" xmlns:xlink="http://www.w3.org/1999/xlink" xmlns:svgjs="http://svgjs.dev/svgjs" width="2000" height="1247" viewBox="0 0 2000 1247"><g transform="matrix(1,0,0,1,-1.2121212121211329,0.504858299595071)"><svg viewBox="0 0 396 247" data-background-color="#d9d9d9" preserveAspectRatio="xMidYMid meet" height="1247" width="2000" xmlns="http://www.w3.org/2000/svg" xmlns:xlink="http://www.w3.org/1999/xlink"><g id="tight-bounds" transform="matrix(1,0,0,1,0.2400000000000091,-0.09999999999999432)"><svg viewBox="0 0 395.52 247.2" height="247.2" width="395.52"><g><svg></svg></g><g><svg viewBox="0 0 395.52 247.2" height="247.2" width="395.52"><g transform="matrix(1,0,0,1,75.54432,99.8274532206475)"><svg viewBox="0 0 244.43135999999998 47.54509355870498" height="47.54509355870498" width="244.43135999999998"><g><svg viewBox="0 0 244.43135999999998 47.54509355870498" height="47.54509355870498" width="244.43135999999998"><g><svg viewBox="0 0 244.43135999999998 47.54509355870498" height="47.54509355870498" width="244.43135999999998"><g><svg viewBox="0 0 244.43135999999998 47.54509355870498" height="47.54509355870498" width="244.43135999999998"><g id="textblocktransform"><svg viewBox="0 0 244.43135999999998 47.54509355870498" height="47.54509355870498" width="244.43135999999998" id="textblock"><g><svg viewBox="0 0 244.43135999999998 47.54509355870498" height="47.54509355870498" width="244.43135999999998"><g transform="matrix(1,0,0,1,0,0)"><svg width="244.43135999999998" viewBox="3.03 -36.04 187.75 36.53" height="47.54509355870498" data-palette-color="#d63d41"><path d="M21.61-11.28L26.12-11.28Q25.83-5.57 22.91-2.54 20 0.49 14.67 0.49L14.67 0.49Q9.33 0.49 6.18-3.58 3.03-7.64 3.03-14.6L3.03-14.6 3.03-21.04Q3.03-27.98 6.26-32.01 9.5-36.04 15.09-36.04L15.09-36.04Q20.24-36.04 23.06-32.95 25.88-29.86 26.12-24.12L26.12-24.12 21.61-24.12Q21.31-28.47 19.78-30.32 18.24-32.18 15.09-32.18L15.09-32.18Q11.45-32.18 9.5-29.33 7.54-26.49 7.54-21L7.54-21 7.54-14.48Q7.54-9.08 9.36-6.2 11.18-3.32 14.67-3.32 18.16-3.32 19.7-5.05 21.24-6.79 21.61-11.28L21.61-11.28ZM36.23-26.42L36.23 0 31.91 0 31.91-26.42 36.23-26.42ZM36.57-33.42L36.57-33.42Q36.57-32.32 35.96-31.59 35.35-30.86 34.1-30.86L34.1-30.86Q32.88-30.86 32.27-31.59 31.66-32.32 31.66-33.42 31.66-34.52 32.27-35.28 32.88-36.04 34.1-36.04 35.32-36.04 35.95-35.27 36.57-34.5 36.57-33.42ZM43.01-26.42L47.09-26.42 47.21-23.56Q49.73-26.9 53.63-26.9L53.63-26.9Q60.64-26.9 60.74-17.55L60.74-17.55 60.74 0 56.44 0 56.44-17.36Q56.44-20.46 55.4-21.77 54.37-23.07 52.29-23.07L52.29-23.07Q50.68-23.07 49.4-22 48.12-20.92 47.33-19.19L47.33-19.19 47.33 0 43.01 0 43.01-26.42ZM76.65 0.49L76.65 0.49Q71.72 0.49 69.08-2.45 66.45-5.4 66.4-11.08L66.4-11.08 66.4-14.28Q66.4-20.19 68.97-23.55 71.55-26.9 76.16-26.9L76.16-26.9Q80.8-26.9 83.1-23.95 85.39-21 85.44-14.75L85.44-14.75 85.44-11.91 70.7-11.91 70.7-11.3Q70.7-7.06 72.29-5.13 73.89-3.2 76.9-3.2L76.9-3.2Q78.8-3.2 80.25-3.92 81.71-4.64 82.98-6.2L82.98-6.2 85.22-3.47Q82.41 0.49 76.65 0.49ZM76.16-23.19L76.16-23.19Q73.48-23.19 72.18-21.35 70.89-19.51 70.72-15.63L70.72-15.63 81.12-15.63 81.12-16.21Q80.95-19.97 79.77-21.58 78.58-23.19 76.16-23.19ZM93.59-35.55L98.01-11.21 98.48-7.23 99.18-10.74 104.87-35.55 108.61-35.55 114.13-10.74 114.83-7.13 115.35-11.23 119.69-35.55 124.16-35.55 117.08 0 113.05 0 107.12-25.9 106.75-28 106.39-25.9 100.23 0 96.18 0 89.13-35.55 93.59-35.55ZM145.98 0L141.49 0Q141.1-0.85 140.93-2.88L140.93-2.88Q138.63 0.49 135.07 0.49L135.07 0.49Q131.48 0.49 129.47-1.53 127.45-3.54 127.45-7.2L127.45-7.2Q127.45-11.23 130.19-13.6 132.92-15.97 137.68-16.02L137.68-16.02 140.86-16.02 140.86-18.82Q140.86-21.19 139.81-22.19 138.76-23.19 136.61-23.19L136.61-23.19Q134.66-23.19 133.43-22.03 132.21-20.87 132.21-19.09L132.21-19.09 127.89-19.09Q127.89-21.12 129.09-22.96 130.29-24.8 132.31-25.85 134.34-26.9 136.83-26.9L136.83-26.9Q140.88-26.9 142.99-24.89 145.1-22.88 145.15-19.02L145.15-19.02 145.15-5.69Q145.18-2.64 145.98-0.39L145.98-0.39 145.98 0ZM135.73-3.44L135.73-3.44Q137.32-3.44 138.76-4.32 140.2-5.2 140.86-6.52L140.86-6.52 140.86-12.82 138.42-12.82Q135.34-12.77 133.56-11.44 131.77-10.11 131.77-7.71L131.77-7.71Q131.77-5.47 132.68-4.46 133.58-3.44 135.73-3.44ZM153.77-26.42L158.97-6.57 163.97-26.42 168.37-26.42 160.53 0 157.31 0 149.37-26.42 153.77-26.42ZM181.99 0.49L181.99 0.49Q177.06 0.49 174.42-2.45 171.78-5.4 171.74-11.08L171.74-11.08 171.74-14.28Q171.74-20.19 174.31-23.55 176.89-26.9 181.5-26.9L181.5-26.9Q186.14-26.9 188.43-23.95 190.73-21 190.78-14.75L190.78-14.75 190.78-11.91 176.03-11.91 176.03-11.3Q176.03-7.06 177.63-5.13 179.23-3.2 182.23-3.2L182.23-3.2Q184.14-3.2 185.59-3.92 187.04-4.64 188.31-6.2L188.31-6.2 190.56-3.47Q187.75 0.49 181.99 0.49ZM181.5-23.19L181.5-23.19Q178.82-23.19 177.52-21.35 176.23-19.51 176.06-15.63L176.06-15.63 186.46-15.63 186.46-16.21Q186.29-19.97 185.1-21.58 183.92-23.19 181.5-23.19Z" opacity="1" transform="matrix(1,0,0,1,0,0)" fill="#d63d41" class="wordmark-text-0" data-fill-palette-color="primary" id="text-0"></path></svg></g></svg></g></svg></g></svg></g></svg></g></svg></g></svg></g><g><path d="M0 123.6c0-68.262 55.338-123.6 123.6-123.6 58.137 0 106.899 40.139 120.086 94.215l-2.209 0c-13.139-52.881-60.932-92.071-117.877-92.071-67.078 0-121.456 54.378-121.456 121.456 0 67.078 54.378 121.456 121.456 121.456 56.946 0 104.738-39.19 117.877-92.071l2.209 0c-13.187 54.077-61.949 94.215-120.086 94.215-68.262 0-123.6-55.338-123.6-123.6z" fill="#53373c" stroke="transparent" data-fill-palette-color="tertiary"></path></g></svg></g><defs></defs></svg><rect width="395.52" height="247.2" fill="none" stroke="none" visibility="hidden"></rect></g></svg></g></svg>