<svg xmlns="http://www.w3.org/2000/svg" version="1.1" xmlns:xlink="http://www.w3.org/1999/xlink" xmlns:svgjs="http://svgjs.dev/svgjs" width="2000" height="1247" viewBox="0 0 2000 1247"><g transform="matrix(1,0,0,1,-1.2121212121212466,0.504858299595071)"><svg viewBox="0 0 396 247" data-background-color="#d9d9d9" preserveAspectRatio="xMidYMid meet" height="1247" width="2000" xmlns="http://www.w3.org/2000/svg" xmlns:xlink="http://www.w3.org/1999/xlink"><g id="tight-bounds" transform="matrix(1,0,0,1,0.2400000000000091,-0.09999999999999432)"><svg viewBox="0 0 395.52 247.2" height="247.2" width="395.52"><g><svg></svg></g><g><svg viewBox="0 0 395.52 247.2" height="247.2" width="395.52"><g transform="matrix(1,0,0,1,75.54432,58.02085463414633)"><svg viewBox="0 0 244.43135999999998 131.15829073170732" height="131.15829073170732" width="244.43135999999998"><g><svg viewBox="0 0 244.43135999999998 131.15829073170732" height="131.15829073170732" width="244.43135999999998"><g><svg viewBox="0 0 244.43135999999998 131.15829073170732" height="131.15829073170732" width="244.43135999999998"><g><svg viewBox="0 0 244.43135999999998 131.15829073170732" height="131.15829073170732" width="244.43135999999998"><g id="textblocktransform"><svg viewBox="0 0 244.43135999999998 131.15829073170732" height="131.15829073170732" width="244.43135999999998" id="textblock"><g><svg viewBox="0 0 244.43135999999998 131.15829073170732" height="131.15829073170732" width="244.43135999999998"><g transform="matrix(1,0,0,1,0,0)"><svg width="244.43135999999998" viewBox="2.39 -26.9 51.05 27.39" height="131.15829073170732" data-palette-color="#d63d41"><path d="M11.96-2.03L11.96-2.03Q14.79-2.03 16.31-3.61 17.82-5.2 17.94-8.18L17.94-8.18 20.56-8.18Q20.36-4.13 17.97-1.82 15.58 0.49 11.96 0.49L11.96 0.49Q7.25 0.49 4.85-2.53 2.44-5.54 2.39-11.47L2.39-11.47 2.39-14.7Q2.39-20.75 4.8-23.83 7.2-26.9 11.94-26.9L11.94-26.9Q15.87-26.9 18.14-24.43 20.41-21.95 20.56-17.5L20.56-17.5 17.94-17.5Q17.82-20.78 16.28-22.57 14.75-24.37 11.94-24.37L11.94-24.37Q8.42-24.37 6.77-22 5.13-19.63 5.13-14.72L5.13-14.72 5.13-11.72Q5.13-6.64 6.79-4.33 8.45-2.03 11.96-2.03ZM27.15-26.42L31.86-6.01 32.08-4.54 32.37-6.13 37.77-26.42 40.04-26.42 45.38-6.3 45.77-4.22 46.09-6.08 50.66-26.42 53.44-26.42 46.97 0 44.7 0 38.96-21 38.84-21.63 38.74-20.97 33.1 0 30.81 0 24.39-26.42 27.15-26.42Z" opacity="1" transform="matrix(1,0,0,1,0,0)" fill="#d63d41" class="wordmark-text-0" data-fill-palette-color="primary" id="text-0"></path></svg></g></svg></g></svg></g></svg></g></svg></g></svg></g></svg></g><g><path d="M0 123.6c0-68.262 55.338-123.6 123.6-123.6 37.248 0 70.648 16.477 93.309 42.539l-7.991 0c-21.441-22.56-51.737-36.625-85.318-36.625-64.996 0-117.686 52.69-117.686 117.686 0 64.996 52.69 117.686 117.686 117.686 33.581 0 63.877-14.065 85.318-36.625h7.991c-22.661 26.063-56.061 42.539-93.309 42.539-68.262 0-123.6-55.338-123.6-123.6z" fill="#53373c" stroke="transparent" data-fill-palette-color="tertiary"></path></g></svg></g><defs></defs></svg><rect width="395.52" height="247.2" fill="none" stroke="none" visibility="hidden"></rect></g></svg></g></svg>