<svg width="250" height="224" viewBox="0 0 250 224" fill="none" xmlns="http://www.w3.org/2000/svg">
<rect y="52" width="250" height="171.795" rx="10" fill="#D9D9D9"/>
<path d="M88.8587 117H87.4496C87.3662 116.595 87.2204 116.239 87.0121 115.932C86.8075 115.625 86.5575 115.367 86.2621 115.159C85.9704 114.947 85.6465 114.788 85.2905 114.682C84.9344 114.576 84.5632 114.523 84.1768 114.523C83.4723 114.523 82.834 114.701 82.2621 115.057C81.6939 115.413 81.2412 115.938 80.9041 116.631C80.5708 117.324 80.4041 118.174 80.4041 119.182C80.4041 120.189 80.5708 121.04 80.9041 121.733C81.2412 122.426 81.6939 122.951 82.2621 123.307C82.834 123.663 83.4723 123.841 84.1768 123.841C84.5632 123.841 84.9344 123.788 85.2905 123.682C85.6465 123.576 85.9704 123.419 86.2621 123.21C86.5575 122.998 86.8075 122.739 87.0121 122.432C87.2204 122.121 87.3662 121.765 87.4496 121.364H88.8587C88.7526 121.958 88.5594 122.491 88.2791 122.96C87.9988 123.43 87.6503 123.83 87.2337 124.159C86.817 124.485 86.3492 124.733 85.8303 124.903C85.3151 125.074 84.764 125.159 84.1768 125.159C83.1844 125.159 82.3018 124.917 81.5291 124.432C80.7564 123.947 80.1484 123.258 79.7053 122.364C79.2621 121.47 79.0405 120.409 79.0405 119.182C79.0405 117.955 79.2621 116.894 79.7053 116C80.1484 115.106 80.7564 114.417 81.5291 113.932C82.3018 113.447 83.1844 113.205 84.1768 113.205C84.764 113.205 85.3151 113.29 85.8303 113.46C86.3492 113.631 86.817 113.881 87.2337 114.21C87.6503 114.536 87.9988 114.934 88.2791 115.403C88.5594 115.869 88.7526 116.402 88.8587 117ZM92.2947 119.75V125H90.9538V113.364H92.2947V117.636H92.4084C92.6129 117.186 92.9197 116.828 93.3288 116.562C93.7417 116.294 94.291 116.159 94.9766 116.159C95.5713 116.159 96.0921 116.278 96.5391 116.517C96.986 116.752 97.3326 117.114 97.5788 117.602C97.8288 118.087 97.9538 118.705 97.9538 119.455V125H96.6129V119.545C96.6129 118.852 96.433 118.316 96.0732 117.938C95.7171 117.555 95.2228 117.364 94.5902 117.364C94.1508 117.364 93.7569 117.456 93.4084 117.642C93.0637 117.828 92.791 118.098 92.5902 118.455C92.3932 118.811 92.2947 119.242 92.2947 119.75ZM102.975 125.205C102.422 125.205 101.92 125.1 101.469 124.892C101.019 124.68 100.661 124.375 100.396 123.977C100.13 123.576 99.9979 123.091 99.9979 122.523C99.9979 122.023 100.096 121.617 100.293 121.307C100.49 120.992 100.754 120.746 101.083 120.568C101.413 120.39 101.776 120.258 102.174 120.17C102.576 120.08 102.979 120.008 103.384 119.955C103.915 119.886 104.344 119.835 104.674 119.801C105.007 119.763 105.25 119.701 105.401 119.614C105.557 119.527 105.634 119.375 105.634 119.159V119.114C105.634 118.553 105.481 118.117 105.174 117.807C104.871 117.496 104.411 117.341 103.793 117.341C103.153 117.341 102.651 117.481 102.288 117.761C101.924 118.042 101.668 118.341 101.521 118.659L100.248 118.205C100.475 117.674 100.778 117.261 101.157 116.966C101.54 116.667 101.956 116.458 102.407 116.341C102.862 116.22 103.308 116.159 103.748 116.159C104.028 116.159 104.35 116.193 104.714 116.261C105.081 116.326 105.435 116.46 105.776 116.665C106.121 116.869 106.407 117.178 106.634 117.591C106.862 118.004 106.975 118.557 106.975 119.25V125H105.634V123.818H105.566C105.475 124.008 105.324 124.21 105.112 124.426C104.899 124.642 104.617 124.826 104.265 124.977C103.913 125.129 103.483 125.205 102.975 125.205ZM103.18 124C103.71 124 104.157 123.896 104.521 123.688C104.888 123.479 105.165 123.21 105.35 122.881C105.54 122.551 105.634 122.205 105.634 121.841V120.614C105.577 120.682 105.452 120.744 105.259 120.801C105.07 120.854 104.85 120.902 104.6 120.943C104.354 120.981 104.113 121.015 103.879 121.045C103.647 121.072 103.46 121.095 103.316 121.114C102.968 121.159 102.642 121.233 102.339 121.335C102.04 121.434 101.797 121.583 101.612 121.784C101.43 121.981 101.339 122.25 101.339 122.591C101.339 123.057 101.511 123.409 101.856 123.648C102.204 123.883 102.646 124 103.18 124ZM113.218 116.273V117.409H108.695V116.273H113.218ZM110.013 114.182H111.354V122.5C111.354 122.879 111.409 123.163 111.519 123.352C111.633 123.538 111.777 123.663 111.951 123.727C112.129 123.788 112.317 123.818 112.513 123.818C112.661 123.818 112.782 123.811 112.877 123.795C112.972 123.777 113.048 123.761 113.104 123.75L113.377 124.955C113.286 124.989 113.159 125.023 112.996 125.057C112.834 125.095 112.627 125.114 112.377 125.114C111.998 125.114 111.627 125.032 111.263 124.869C110.904 124.706 110.604 124.458 110.366 124.125C110.131 123.792 110.013 123.371 110.013 122.864V114.182ZM121.712 125L119.053 116.273H120.462L122.349 122.955H122.44L124.303 116.273H125.735L127.576 122.932H127.667L129.553 116.273H130.962L128.303 125H126.985L125.076 118.295H124.94L123.031 125H121.712ZM132.735 125V116.273H134.076V125H132.735ZM133.417 114.818C133.156 114.818 132.93 114.729 132.741 114.551C132.555 114.373 132.462 114.159 132.462 113.909C132.462 113.659 132.555 113.445 132.741 113.267C132.93 113.089 133.156 113 133.417 113C133.678 113 133.902 113.089 134.087 113.267C134.277 113.445 134.371 113.659 134.371 113.909C134.371 114.159 134.277 114.373 134.087 114.551C133.902 114.729 133.678 114.818 133.417 114.818ZM140.327 116.273V117.409H135.805V116.273H140.327ZM137.123 114.182H138.464V122.5C138.464 122.879 138.519 123.163 138.629 123.352C138.742 123.538 138.886 123.663 139.06 123.727C139.238 123.788 139.426 123.818 139.623 123.818C139.771 123.818 139.892 123.811 139.987 123.795C140.081 123.777 140.157 123.761 140.214 123.75L140.487 124.955C140.396 124.989 140.269 125.023 140.106 125.057C139.943 125.095 139.737 125.114 139.487 125.114C139.108 125.114 138.737 125.032 138.373 124.869C138.013 124.706 137.714 124.458 137.475 124.125C137.24 123.792 137.123 123.371 137.123 122.864V114.182ZM143.873 119.75V125H142.532V113.364H143.873V117.636H143.987C144.191 117.186 144.498 116.828 144.907 116.562C145.32 116.294 145.869 116.159 146.555 116.159C147.149 116.159 147.67 116.278 148.117 116.517C148.564 116.752 148.911 117.114 149.157 117.602C149.407 118.087 149.532 118.705 149.532 119.455V125H148.191V119.545C148.191 118.852 148.011 118.316 147.651 117.938C147.295 117.555 146.801 117.364 146.168 117.364C145.729 117.364 145.335 117.456 144.987 117.642C144.642 117.828 144.369 118.098 144.168 118.455C143.971 118.811 143.873 119.242 143.873 119.75ZM161.985 121.432V116.273H163.326V125H161.985V123.523H161.894C161.69 123.966 161.371 124.343 160.94 124.653C160.508 124.96 159.962 125.114 159.303 125.114C158.758 125.114 158.273 124.994 157.849 124.756C157.424 124.513 157.091 124.15 156.849 123.665C156.606 123.176 156.485 122.561 156.485 121.818V116.273H157.826V121.727C157.826 122.364 158.004 122.871 158.36 123.25C158.72 123.629 159.178 123.818 159.735 123.818C160.068 123.818 160.407 123.733 160.752 123.562C161.101 123.392 161.392 123.131 161.627 122.778C161.866 122.426 161.985 121.977 161.985 121.432ZM171.964 118.227L170.759 118.568C170.683 118.367 170.572 118.172 170.424 117.983C170.28 117.79 170.083 117.631 169.833 117.506C169.583 117.381 169.263 117.318 168.873 117.318C168.339 117.318 167.894 117.441 167.538 117.688C167.185 117.93 167.009 118.239 167.009 118.614C167.009 118.947 167.13 119.21 167.373 119.403C167.615 119.597 167.994 119.758 168.509 119.886L169.805 120.205C170.585 120.394 171.166 120.684 171.549 121.074C171.932 121.46 172.123 121.958 172.123 122.568C172.123 123.068 171.979 123.515 171.691 123.909C171.407 124.303 171.009 124.614 170.498 124.841C169.987 125.068 169.392 125.182 168.714 125.182C167.824 125.182 167.087 124.989 166.504 124.602C165.92 124.216 165.551 123.652 165.396 122.909L166.668 122.591C166.79 123.061 167.019 123.413 167.356 123.648C167.697 123.883 168.142 124 168.691 124C169.316 124 169.812 123.867 170.18 123.602C170.551 123.333 170.737 123.011 170.737 122.636C170.737 122.333 170.63 122.08 170.418 121.875C170.206 121.667 169.88 121.511 169.441 121.409L167.987 121.068C167.187 120.879 166.6 120.585 166.225 120.188C165.854 119.786 165.668 119.284 165.668 118.682C165.668 118.189 165.807 117.754 166.083 117.375C166.363 116.996 166.744 116.699 167.225 116.483C167.71 116.267 168.259 116.159 168.873 116.159C169.737 116.159 170.415 116.348 170.907 116.727C171.403 117.106 171.755 117.606 171.964 118.227Z" fill="black"/>
<path d="M66.7219 143.545C66.7219 144.696 66.5141 145.69 66.0986 146.528C65.6832 147.366 65.1132 148.013 64.3888 148.467C63.6643 148.922 62.8369 149.149 61.9065 149.149C60.9761 149.149 60.1487 148.922 59.4243 148.467C58.6998 148.013 58.1299 147.366 57.7144 146.528C57.2989 145.69 57.0912 144.696 57.0912 143.545C57.0912 142.395 57.2989 141.401 57.7144 140.562C58.1299 139.724 58.6998 139.078 59.4243 138.624C60.1487 138.169 60.9761 137.942 61.9065 137.942C62.8369 137.942 63.6643 138.169 64.3888 138.624C65.1132 139.078 65.6832 139.724 66.0986 140.562C66.5141 141.401 66.7219 142.395 66.7219 143.545ZM65.4434 143.545C65.4434 142.601 65.2854 141.804 64.9694 141.154C64.6569 140.504 64.2325 140.012 63.6963 139.678C63.1636 139.344 62.567 139.178 61.9065 139.178C61.246 139.178 60.6476 139.344 60.1114 139.678C59.5787 140.012 59.1544 140.504 58.8383 141.154C58.5258 141.804 58.3696 142.601 58.3696 143.545C58.3696 144.49 58.5258 145.287 58.8383 145.937C59.1544 146.587 59.5787 147.079 60.1114 147.413C60.6476 147.746 61.246 147.913 61.9065 147.913C62.567 147.913 63.1636 147.746 63.6963 147.413C64.2325 147.079 64.6569 146.587 64.9694 145.937C65.2854 145.287 65.4434 144.49 65.4434 143.545ZM60.3724 136.727C60.1487 136.727 59.9498 136.642 59.7758 136.472C59.6054 136.298 59.5202 136.099 59.5202 135.875C59.5202 135.63 59.6054 135.428 59.7758 135.268C59.9498 135.104 60.1487 135.023 60.3724 135.023C60.6175 135.023 60.8199 135.104 60.9797 135.268C61.143 135.428 61.2247 135.63 61.2247 135.875C61.2247 136.099 61.143 136.298 60.9797 136.472C60.8199 136.642 60.6175 136.727 60.3724 136.727ZM63.4406 136.727C63.2169 136.727 63.018 136.642 62.844 136.472C62.6736 136.298 62.5883 136.099 62.5883 135.875C62.5883 135.63 62.6736 135.428 62.844 135.268C63.018 135.104 63.2169 135.023 63.4406 135.023C63.6856 135.023 63.8881 135.104 64.0479 135.268C64.2112 135.428 64.2929 135.63 64.2929 135.875C64.2929 136.099 64.2112 136.298 64.0479 136.472C63.8881 136.642 63.6856 136.727 63.4406 136.727ZM68.7726 152.068V140.818H69.9871V142.118H70.1363C70.2286 141.976 70.3564 141.795 70.5198 141.575C70.6867 141.351 70.9246 141.152 71.2336 140.978C71.5461 140.8 71.9687 140.712 72.5013 140.712C73.1903 140.712 73.7975 140.884 74.3231 141.228C74.8486 141.573 75.2588 142.061 75.5535 142.693C75.8483 143.325 75.9956 144.071 75.9956 144.93C75.9956 145.797 75.8483 146.548 75.5535 147.184C75.2588 147.816 74.8504 148.306 74.3284 148.654C73.8064 148.998 73.2045 149.17 72.5226 149.17C71.9971 149.17 71.5763 149.083 71.2602 148.909C70.9442 148.732 70.7009 148.531 70.5305 148.308C70.36 148.08 70.2286 147.892 70.1363 147.743H70.0297V152.068H68.7726ZM70.0084 144.909C70.0084 145.527 70.099 146.072 70.2801 146.544C70.4612 147.013 70.7258 147.381 71.0738 147.647C71.4218 147.91 71.8479 148.041 72.3522 148.041C72.8778 148.041 73.3163 147.903 73.6679 147.626C74.023 147.345 74.2893 146.969 74.4669 146.496C74.648 146.021 74.7385 145.491 74.7385 144.909C74.7385 144.334 74.6498 143.815 74.4722 143.354C74.2982 142.888 74.0336 142.521 73.6785 142.251C73.327 141.978 72.8849 141.841 72.3522 141.841C71.8408 141.841 71.4111 141.971 71.0631 142.23C70.7151 142.485 70.4523 142.844 70.2748 143.306C70.0972 143.764 70.0084 144.298 70.0084 144.909ZM77.9133 152.068V140.818H79.1278V142.118H79.2769C79.3692 141.976 79.4971 141.795 79.6604 141.575C79.8273 141.351 80.0653 141.152 80.3742 140.978C80.6867 140.8 81.1093 140.712 81.642 140.712C82.3309 140.712 82.9381 140.884 83.4637 141.228C83.9893 141.573 84.3994 142.061 84.6942 142.693C84.9889 143.325 85.1363 144.071 85.1363 144.93C85.1363 145.797 84.9889 146.548 84.6942 147.184C84.3994 147.816 83.991 148.306 83.469 148.654C82.947 148.998 82.3451 149.17 81.6633 149.17C81.1377 149.17 80.7169 149.083 80.4008 148.909C80.0848 148.732 79.8415 148.531 79.6711 148.308C79.5006 148.08 79.3692 147.892 79.2769 147.743H79.1704V152.068H77.9133ZM79.1491 144.909C79.1491 145.527 79.2396 146.072 79.4207 146.544C79.6018 147.013 79.8664 147.381 80.2144 147.647C80.5624 147.91 80.9885 148.041 81.4928 148.041C82.0184 148.041 82.4569 147.903 82.8085 147.626C83.1636 147.345 83.43 146.969 83.6075 146.496C83.7886 146.021 83.8792 145.491 83.8792 144.909C83.8792 144.334 83.7904 143.815 83.6128 143.354C83.4388 142.888 83.1743 142.521 82.8192 142.251C82.4676 141.978 82.0255 141.841 81.4928 141.841C80.9814 141.841 80.5518 141.971 80.2037 142.23C79.8557 142.485 79.593 142.844 79.4154 143.306C79.2378 143.764 79.1491 144.298 79.1491 144.909ZM90.4843 149.17C89.6959 149.17 89.0159 148.996 88.4442 148.648C87.876 148.297 87.4374 147.807 87.1285 147.178C86.8231 146.546 86.6704 145.811 86.6704 144.973C86.6704 144.135 86.8231 143.396 87.1285 142.757C87.4374 142.114 87.8671 141.614 88.4175 141.255C88.9715 140.893 89.6178 140.712 90.3564 140.712C90.7826 140.712 91.2034 140.783 91.6189 140.925C92.0344 141.067 92.4126 141.298 92.7535 141.617C93.0944 141.933 93.366 142.352 93.5684 142.874C93.7709 143.396 93.8721 144.039 93.8721 144.803V145.335H87.5653V144.249H92.5937C92.5937 143.787 92.5013 143.375 92.3167 143.013C92.1356 142.651 91.8763 142.365 91.539 142.155C91.2052 141.946 90.811 141.841 90.3564 141.841C89.8557 141.841 89.4225 141.965 89.0567 142.214C88.6945 142.459 88.4157 142.778 88.2204 143.173C88.0251 143.567 87.9275 143.989 87.9275 144.44V145.165C87.9275 145.783 88.034 146.306 88.2471 146.736C88.4637 147.162 88.7638 147.487 89.1473 147.711C89.5308 147.931 89.9765 148.041 90.4843 148.041C90.8145 148.041 91.1128 147.995 91.3792 147.903C91.6491 147.807 91.8817 147.665 92.077 147.477C92.2723 147.285 92.4232 147.047 92.5297 146.763L93.7442 147.104C93.6164 147.516 93.4015 147.878 93.0997 148.19C92.7979 148.499 92.425 148.741 91.9811 148.915C91.5372 149.085 91.0383 149.17 90.4843 149.17ZM99.3426 140.818V141.884H95.1025V140.818H99.3426ZM96.3383 138.858H97.5954V146.656C97.5954 147.011 97.6469 147.278 97.7499 147.455C97.8564 147.629 97.9914 147.746 98.1547 147.807C98.3216 147.864 98.4974 147.892 98.6821 147.892C98.8206 147.892 98.9342 147.885 99.023 147.871C99.1118 147.853 99.1828 147.839 99.2361 147.828L99.4917 148.957C99.4065 148.989 99.2876 149.021 99.1349 149.053C98.9822 149.089 98.7886 149.107 98.5542 149.107C98.1991 149.107 97.8511 149.03 97.5102 148.877C97.1729 148.725 96.8923 148.492 96.6686 148.18C96.4484 147.867 96.3383 147.473 96.3383 146.997V138.858ZM102.15 149.085C101.887 149.085 101.661 148.991 101.473 148.803C101.285 148.615 101.191 148.389 101.191 148.126C101.191 147.864 101.285 147.638 101.473 147.45C101.661 147.262 101.887 147.168 102.15 147.168C102.413 147.168 102.638 147.262 102.826 147.45C103.014 147.638 103.109 147.864 103.109 148.126C103.109 148.3 103.064 148.46 102.975 148.606C102.89 148.751 102.775 148.869 102.629 148.957C102.487 149.043 102.327 149.085 102.15 149.085ZM102.15 143.013C101.887 143.013 101.661 142.919 101.473 142.73C101.285 142.542 101.191 142.317 101.191 142.054C101.191 141.791 101.285 141.566 101.473 141.377C101.661 141.189 101.887 141.095 102.15 141.095C102.413 141.095 102.638 141.189 102.826 141.377C103.014 141.566 103.109 141.791 103.109 142.054C103.109 142.228 103.064 142.388 102.975 142.533C102.89 142.679 102.775 142.796 102.629 142.885C102.487 142.97 102.327 143.013 102.15 143.013ZM113.056 149.149C112.325 149.149 111.678 149.02 111.117 148.76C110.56 148.498 110.125 148.137 109.812 147.679C109.5 147.217 109.345 146.692 109.349 146.102C109.345 145.641 109.436 145.214 109.62 144.824C109.805 144.43 110.057 144.101 110.377 143.838C110.7 143.572 111.06 143.403 111.458 143.332V143.268C110.936 143.134 110.521 142.841 110.212 142.39C109.903 141.935 109.75 141.418 109.754 140.839C109.75 140.286 109.89 139.79 110.174 139.353C110.459 138.917 110.849 138.572 111.346 138.32C111.847 138.068 112.417 137.942 113.056 137.942C113.688 137.942 114.253 138.068 114.75 138.32C115.247 138.572 115.638 138.917 115.922 139.353C116.21 139.79 116.355 140.286 116.359 140.839C116.355 141.418 116.197 141.935 115.885 142.39C115.576 142.841 115.166 143.134 114.654 143.268V143.332C115.048 143.403 115.403 143.572 115.72 143.838C116.036 144.101 116.288 144.43 116.476 144.824C116.664 145.214 116.76 145.641 116.764 146.102C116.76 146.692 116.6 147.217 116.284 147.679C115.972 148.137 115.537 148.498 114.979 148.76C114.425 149.02 113.784 149.149 113.056 149.149ZM113.056 147.977C113.55 147.977 113.976 147.897 114.335 147.738C114.693 147.578 114.97 147.352 115.166 147.061C115.361 146.77 115.46 146.429 115.464 146.038C115.46 145.626 115.354 145.262 115.144 144.946C114.935 144.63 114.649 144.382 114.287 144.201C113.928 144.02 113.518 143.929 113.056 143.929C112.591 143.929 112.176 144.02 111.81 144.201C111.448 144.382 111.162 144.63 110.952 144.946C110.746 145.262 110.645 145.626 110.649 146.038C110.645 146.429 110.739 146.77 110.931 147.061C111.126 147.352 111.405 147.578 111.767 147.738C112.129 147.897 112.559 147.977 113.056 147.977ZM113.056 142.8C113.447 142.8 113.793 142.722 114.095 142.565C114.4 142.409 114.64 142.191 114.814 141.91C114.988 141.63 115.077 141.301 115.08 140.925C115.077 140.555 114.99 140.234 114.819 139.961C114.649 139.684 114.413 139.471 114.111 139.321C113.809 139.169 113.457 139.092 113.056 139.092C112.648 139.092 112.291 139.169 111.986 139.321C111.68 139.471 111.444 139.684 111.277 139.961C111.11 140.234 111.028 140.555 111.032 140.925C111.028 141.301 111.112 141.63 111.282 141.91C111.456 142.191 111.696 142.409 112.002 142.565C112.307 142.722 112.658 142.8 113.056 142.8ZM119.743 147.604C119.48 147.604 119.254 147.51 119.066 147.322C118.878 147.134 118.784 146.908 118.784 146.646C118.784 146.383 118.878 146.157 119.066 145.969C119.254 145.781 119.48 145.687 119.743 145.687C120.005 145.687 120.231 145.781 120.419 145.969C120.607 146.157 120.701 146.383 120.701 146.646C120.701 146.82 120.657 146.979 120.568 147.125C120.483 147.271 120.368 147.388 120.222 147.477C120.08 147.562 119.92 147.604 119.743 147.604ZM119.743 142.086C119.48 142.086 119.254 141.992 119.066 141.804C118.878 141.615 118.784 141.39 118.784 141.127C118.784 140.864 118.878 140.639 119.066 140.451C119.254 140.262 119.48 140.168 119.743 140.168C120.005 140.168 120.231 140.262 120.419 140.451C120.607 140.639 120.701 140.864 120.701 141.127C120.701 141.301 120.657 141.461 120.568 141.607C120.483 141.752 120.368 141.869 120.222 141.958C120.08 142.043 119.92 142.086 119.743 142.086ZM126.494 149.149C125.692 149.149 125.008 148.931 124.443 148.494C123.879 148.054 123.447 147.416 123.149 146.582C122.851 145.744 122.702 144.732 122.702 143.545C122.702 142.366 122.851 141.36 123.149 140.525C123.451 139.687 123.884 139.048 124.449 138.608C125.017 138.164 125.699 137.942 126.494 137.942C127.29 137.942 127.97 138.164 128.534 138.608C129.102 139.048 129.536 139.687 129.834 140.525C130.136 141.36 130.287 142.366 130.287 143.545C130.287 144.732 130.138 145.744 129.839 146.582C129.541 147.416 129.11 148.054 128.545 148.494C127.98 148.931 127.297 149.149 126.494 149.149ZM126.494 147.977C127.29 147.977 127.907 147.594 128.348 146.827C128.788 146.06 129.008 144.966 129.008 143.545C129.008 142.601 128.907 141.797 128.705 141.132C128.506 140.468 128.218 139.962 127.842 139.614C127.469 139.266 127.02 139.092 126.494 139.092C125.706 139.092 125.09 139.481 124.646 140.259C124.202 141.033 123.98 142.129 123.98 143.545C123.98 144.49 124.079 145.293 124.278 145.953C124.477 146.614 124.763 147.116 125.136 147.461C125.512 147.805 125.965 147.977 126.494 147.977ZM135.869 149.149C135.067 149.149 134.383 148.931 133.818 148.494C133.254 148.054 132.822 147.416 132.524 146.582C132.226 145.744 132.077 144.732 132.077 143.545C132.077 142.366 132.226 141.36 132.524 140.525C132.826 139.687 133.259 139.048 133.824 138.608C134.392 138.164 135.074 137.942 135.869 137.942C136.665 137.942 137.345 138.164 137.909 138.608C138.477 139.048 138.911 139.687 139.209 140.525C139.511 141.36 139.662 142.366 139.662 143.545C139.662 144.732 139.513 145.744 139.214 146.582C138.916 147.416 138.485 148.054 137.92 148.494C137.355 148.931 136.672 149.149 135.869 149.149ZM135.869 147.977C136.665 147.977 137.282 147.594 137.723 146.827C138.163 146.06 138.383 144.966 138.383 143.545C138.383 142.601 138.282 141.797 138.08 141.132C137.881 140.468 137.593 139.962 137.217 139.614C136.844 139.266 136.395 139.092 135.869 139.092C135.081 139.092 134.465 139.481 134.021 140.259C133.577 141.033 133.355 142.129 133.355 143.545C133.355 144.49 133.454 145.293 133.653 145.953C133.852 146.614 134.138 147.116 134.511 147.461C134.887 147.805 135.34 147.977 135.869 147.977ZM150.613 142.96V144.131H145.841V142.96H150.613ZM160.858 138.091V149H159.537V139.476H159.473L156.81 141.244V139.902L159.537 138.091H160.858ZM164.336 149L169.216 139.348V139.263H163.591V138.091H170.579V139.327L165.721 149H164.336ZM172.99 147.604C172.727 147.604 172.501 147.51 172.313 147.322C172.125 147.134 172.031 146.908 172.031 146.646C172.031 146.383 172.125 146.157 172.313 145.969C172.501 145.781 172.727 145.687 172.99 145.687C173.252 145.687 173.478 145.781 173.666 145.969C173.854 146.157 173.948 146.383 173.948 146.646C173.948 146.82 173.904 146.979 173.815 147.125C173.73 147.271 173.615 147.388 173.469 147.477C173.327 147.562 173.167 147.604 172.99 147.604ZM172.99 142.086C172.727 142.086 172.501 141.992 172.313 141.804C172.125 141.615 172.031 141.39 172.031 141.127C172.031 140.864 172.125 140.639 172.313 140.451C172.501 140.262 172.727 140.168 172.99 140.168C173.252 140.168 173.478 140.262 173.666 140.451C173.854 140.639 173.948 140.864 173.948 141.127C173.948 141.301 173.904 141.461 173.815 141.607C173.73 141.752 173.615 141.869 173.469 141.958C173.327 142.043 173.167 142.086 172.99 142.086ZM179.741 149.149C178.939 149.149 178.255 148.931 177.69 148.494C177.126 148.054 176.694 147.416 176.396 146.582C176.098 145.744 175.949 144.732 175.949 143.545C175.949 142.366 176.098 141.36 176.396 140.525C176.698 139.687 177.131 139.048 177.696 138.608C178.264 138.164 178.946 137.942 179.741 137.942C180.537 137.942 181.217 138.164 181.781 138.608C182.35 139.048 182.783 139.687 183.081 140.525C183.383 141.36 183.534 142.366 183.534 143.545C183.534 144.732 183.385 145.744 183.086 146.582C182.788 147.416 182.357 148.054 181.792 148.494C181.227 148.931 180.544 149.149 179.741 149.149ZM179.741 147.977C180.537 147.977 181.155 147.594 181.595 146.827C182.035 146.06 182.255 144.966 182.255 143.545C182.255 142.601 182.154 141.797 181.952 141.132C181.753 140.468 181.465 139.962 181.089 139.614C180.716 139.266 180.267 139.092 179.741 139.092C178.953 139.092 178.337 139.481 177.893 140.259C177.449 141.033 177.227 142.129 177.227 143.545C177.227 144.49 177.326 145.293 177.525 145.953C177.724 146.614 178.01 147.116 178.383 147.461C178.759 147.805 179.212 147.977 179.741 147.977ZM189.116 149.149C188.314 149.149 187.63 148.931 187.065 148.494C186.501 148.054 186.069 147.416 185.771 146.582C185.473 145.744 185.324 144.732 185.324 143.545C185.324 142.366 185.473 141.36 185.771 140.525C186.073 139.687 186.506 139.048 187.071 138.608C187.639 138.164 188.321 137.942 189.116 137.942C189.912 137.942 190.592 138.164 191.156 138.608C191.725 139.048 192.158 139.687 192.456 140.525C192.758 141.36 192.909 142.366 192.909 143.545C192.909 144.732 192.76 145.744 192.461 146.582C192.163 147.416 191.732 148.054 191.167 148.494C190.602 148.931 189.919 149.149 189.116 149.149ZM189.116 147.977C189.912 147.977 190.53 147.594 190.97 146.827C191.41 146.06 191.63 144.966 191.63 143.545C191.63 142.601 191.529 141.797 191.327 141.132C191.128 140.468 190.84 139.962 190.464 139.614C190.091 139.266 189.642 139.092 189.116 139.092C188.328 139.092 187.712 139.481 187.268 140.259C186.824 141.033 186.602 142.129 186.602 143.545C186.602 144.49 186.701 145.293 186.9 145.953C187.099 146.614 187.385 147.116 187.758 147.461C188.134 147.805 188.587 147.977 189.116 147.977Z" fill="black"/>
<path d="M180 52C180 80.098 155.447 103 125 103C94.5533 103 70 80.098 70 52C70 23.902 94.5533 1 125 1C155.447 1 180 23.902 180 52Z" fill="#EB5732" stroke="white" stroke-width="2"/>
<path d="M114.597 64.686C115.806 63.7001 117.371 63.4483 118.777 64.0147C121.261 65.0216 124.044 65.5985 127.006 65.5985C138.694 65.5985 146.501 57.1551 146.501 48.8166C146.501 40.478 138.694 32.0346 127.006 32.0346C115.318 32.0346 107.511 40.478 107.511 48.8166C107.511 52.173 108.673 55.4035 110.857 58.1725C111.663 59.1899 112.057 60.5325 111.963 61.896C111.832 63.7945 111.429 65.5356 110.904 67.0774C112.497 66.2488 113.819 65.3258 114.597 64.6965V64.686ZM104.999 68.9444C105.168 68.6612 105.327 68.378 105.477 68.0948C106.414 66.3537 107.305 64.0672 107.483 61.4974C104.671 57.9208 103.012 53.547 103.012 48.8166C103.012 36.765 113.753 27 127.006 27C140.259 27 151 36.765 151 48.8166C151 60.8681 140.259 70.6331 127.006 70.6331C123.529 70.6331 120.23 69.9618 117.249 68.7556C116.134 69.6682 114.316 70.9163 112.16 71.9652C110.745 72.6574 109.132 73.2868 107.464 73.6539C107.389 73.6748 107.314 73.6853 107.239 73.7063C106.827 73.7902 106.424 73.8636 106.002 73.9056C105.983 73.9056 105.955 73.9161 105.936 73.9161C105.458 73.9685 104.98 74 104.502 74C103.893 74 103.35 73.5909 103.115 72.9616C102.881 72.3323 103.012 71.6191 103.434 71.1366C103.818 70.696 104.165 70.2241 104.493 69.7206C104.652 69.4794 104.802 69.2381 104.943 68.9969C104.952 68.9759 104.962 68.9654 104.971 68.9444H104.999Z" fill="white"/>
</svg>
