<svg width="250" height="224" viewBox="0 0 250 224" fill="none" xmlns="http://www.w3.org/2000/svg">
<rect y="52" width="250" height="171.795" rx="10" fill="#D9D9D9"/>
<path d="M111.07 117H109.661C109.577 116.595 109.431 116.239 109.223 115.932C109.018 115.625 108.768 115.367 108.473 115.159C108.181 114.947 107.857 114.788 107.501 114.682C107.145 114.576 106.774 114.523 106.388 114.523C105.683 114.523 105.045 114.701 104.473 115.057C103.905 115.413 103.452 115.938 103.115 116.631C102.782 117.324 102.615 118.174 102.615 119.182C102.615 120.189 102.782 121.04 103.115 121.733C103.452 122.426 103.905 122.951 104.473 123.307C105.045 123.663 105.683 123.841 106.388 123.841C106.774 123.841 107.145 123.788 107.501 123.682C107.857 123.576 108.181 123.419 108.473 123.21C108.768 122.998 109.018 122.739 109.223 122.432C109.431 122.121 109.577 121.765 109.661 121.364H111.07C110.964 121.958 110.77 122.491 110.49 122.96C110.21 123.43 109.861 123.83 109.445 124.159C109.028 124.485 108.56 124.733 108.041 124.903C107.526 125.074 106.975 125.159 106.388 125.159C105.395 125.159 104.513 124.917 103.74 124.432C102.967 123.947 102.359 123.258 101.916 122.364C101.473 121.47 101.251 120.409 101.251 119.182C101.251 117.955 101.473 116.894 101.916 116C102.359 115.106 102.967 114.417 103.74 113.932C104.513 113.447 105.395 113.205 106.388 113.205C106.975 113.205 107.526 113.29 108.041 113.46C108.56 113.631 109.028 113.881 109.445 114.21C109.861 114.536 110.21 114.934 110.49 115.403C110.77 115.869 110.964 116.402 111.07 117ZM115.733 125.205C115.18 125.205 114.678 125.1 114.227 124.892C113.777 124.68 113.419 124.375 113.153 123.977C112.888 123.576 112.756 123.091 112.756 122.523C112.756 122.023 112.854 121.617 113.051 121.307C113.248 120.992 113.511 120.746 113.841 120.568C114.17 120.39 114.534 120.258 114.932 120.17C115.333 120.08 115.737 120.008 116.142 119.955C116.672 119.886 117.102 119.835 117.432 119.801C117.765 119.763 118.008 119.701 118.159 119.614C118.314 119.527 118.392 119.375 118.392 119.159V119.114C118.392 118.553 118.239 118.117 117.932 117.807C117.629 117.496 117.169 117.341 116.551 117.341C115.911 117.341 115.409 117.481 115.045 117.761C114.682 118.042 114.426 118.341 114.278 118.659L113.006 118.205C113.233 117.674 113.536 117.261 113.915 116.966C114.297 116.667 114.714 116.458 115.165 116.341C115.619 116.22 116.066 116.159 116.506 116.159C116.786 116.159 117.108 116.193 117.472 116.261C117.839 116.326 118.193 116.46 118.534 116.665C118.879 116.869 119.165 117.178 119.392 117.591C119.619 118.004 119.733 118.557 119.733 119.25V125H118.392V123.818H118.324C118.233 124.008 118.081 124.21 117.869 124.426C117.657 124.642 117.375 124.826 117.023 124.977C116.67 125.129 116.241 125.205 115.733 125.205ZM115.938 124C116.468 124 116.915 123.896 117.278 123.688C117.646 123.479 117.922 123.21 118.108 122.881C118.297 122.551 118.392 122.205 118.392 121.841V120.614C118.335 120.682 118.21 120.744 118.017 120.801C117.828 120.854 117.608 120.902 117.358 120.943C117.112 120.981 116.871 121.015 116.636 121.045C116.405 121.072 116.218 121.095 116.074 121.114C115.725 121.159 115.4 121.233 115.097 121.335C114.797 121.434 114.555 121.583 114.369 121.784C114.188 121.981 114.097 122.25 114.097 122.591C114.097 123.057 114.269 123.409 114.614 123.648C114.962 123.883 115.403 124 115.938 124ZM123.521 113.364V125H122.18V113.364H123.521ZM127.318 113.364V125H125.977V113.364H127.318ZM139.774 121.432V116.273H141.115V125H139.774V123.523H139.683C139.479 123.966 139.161 124.343 138.729 124.653C138.297 124.96 137.751 125.114 137.092 125.114C136.547 125.114 136.062 124.994 135.638 124.756C135.214 124.513 134.88 124.15 134.638 123.665C134.395 123.176 134.274 122.561 134.274 121.818V116.273H135.615V121.727C135.615 122.364 135.793 122.871 136.149 123.25C136.509 123.629 136.967 123.818 137.524 123.818C137.857 123.818 138.196 123.733 138.541 123.562C138.89 123.392 139.181 123.131 139.416 122.778C139.655 122.426 139.774 121.977 139.774 121.432ZM149.753 118.227L148.548 118.568C148.473 118.367 148.361 118.172 148.213 117.983C148.069 117.79 147.872 117.631 147.622 117.506C147.372 117.381 147.052 117.318 146.662 117.318C146.128 117.318 145.683 117.441 145.327 117.688C144.974 117.93 144.798 118.239 144.798 118.614C144.798 118.947 144.92 119.21 145.162 119.403C145.404 119.597 145.783 119.758 146.298 119.886L147.594 120.205C148.374 120.394 148.955 120.684 149.338 121.074C149.721 121.46 149.912 121.958 149.912 122.568C149.912 123.068 149.768 123.515 149.48 123.909C149.196 124.303 148.798 124.614 148.287 124.841C147.776 125.068 147.181 125.182 146.503 125.182C145.613 125.182 144.876 124.989 144.293 124.602C143.709 124.216 143.34 123.652 143.185 122.909L144.457 122.591C144.579 123.061 144.808 123.413 145.145 123.648C145.486 123.883 145.931 124 146.48 124C147.105 124 147.601 123.867 147.969 123.602C148.34 123.333 148.526 123.011 148.526 122.636C148.526 122.333 148.42 122.08 148.207 121.875C147.995 121.667 147.67 121.511 147.23 121.409L145.776 121.068C144.976 120.879 144.389 120.585 144.014 120.188C143.643 119.786 143.457 119.284 143.457 118.682C143.457 118.189 143.596 117.754 143.872 117.375C144.152 116.996 144.533 116.699 145.014 116.483C145.499 116.267 146.048 116.159 146.662 116.159C147.526 116.159 148.204 116.348 148.696 116.727C149.192 117.106 149.545 117.606 149.753 118.227Z" fill="black"/>
<path d="M70.9279 143.545C70.9279 144.696 70.7202 145.69 70.3047 146.528C69.8892 147.366 69.3192 148.013 68.5948 148.467C67.8704 148.922 67.043 149.149 66.1126 149.149C65.1822 149.149 64.3548 148.922 63.6303 148.467C62.9059 148.013 62.3359 147.366 61.9205 146.528C61.505 145.69 61.2972 144.696 61.2972 143.545C61.2972 142.395 61.505 141.401 61.9205 140.562C62.3359 139.724 62.9059 139.078 63.6303 138.624C64.3548 138.169 65.1822 137.942 66.1126 137.942C67.043 137.942 67.8704 138.169 68.5948 138.624C69.3192 139.078 69.8892 139.724 70.3047 140.562C70.7202 141.401 70.9279 142.395 70.9279 143.545ZM69.6495 143.545C69.6495 142.601 69.4915 141.804 69.1754 141.154C68.8629 140.504 68.4386 140.012 67.9023 139.678C67.3697 139.344 66.7731 139.178 66.1126 139.178C65.4521 139.178 64.8537 139.344 64.3175 139.678C63.7848 140.012 63.3604 140.504 63.0444 141.154C62.7319 141.804 62.5756 142.601 62.5756 143.545C62.5756 144.49 62.7319 145.287 63.0444 145.937C63.3604 146.587 63.7848 147.079 64.3175 147.413C64.8537 147.746 65.4521 147.913 66.1126 147.913C66.7731 147.913 67.3697 147.746 67.9023 147.413C68.4386 147.079 68.8629 146.587 69.1754 145.937C69.4915 145.287 69.6495 144.49 69.6495 143.545ZM64.5785 136.727C64.3548 136.727 64.1559 136.642 63.9819 136.472C63.8114 136.298 63.7262 136.099 63.7262 135.875C63.7262 135.63 63.8114 135.428 63.9819 135.268C64.1559 135.104 64.3548 135.023 64.5785 135.023C64.8235 135.023 65.0259 135.104 65.1857 135.268C65.3491 135.428 65.4308 135.63 65.4308 135.875C65.4308 136.099 65.3491 136.298 65.1857 136.472C65.0259 136.642 64.8235 136.727 64.5785 136.727ZM67.6467 136.727C67.4229 136.727 67.2241 136.642 67.0501 136.472C66.8796 136.298 66.7944 136.099 66.7944 135.875C66.7944 135.63 66.8796 135.428 67.0501 135.268C67.2241 135.104 67.4229 135.023 67.6467 135.023C67.8917 135.023 68.0941 135.104 68.2539 135.268C68.4173 135.428 68.4989 135.63 68.4989 135.875C68.4989 136.099 68.4173 136.298 68.2539 136.472C68.0941 136.642 67.8917 136.727 67.6467 136.727ZM72.9787 152.068V140.818H74.1932V142.118H74.3423C74.4347 141.976 74.5625 141.795 74.7259 141.575C74.8928 141.351 75.1307 141.152 75.4396 140.978C75.7521 140.8 76.1747 140.712 76.7074 140.712C77.3963 140.712 78.0036 140.884 78.5291 141.228C79.0547 141.573 79.4648 142.061 79.7596 142.693C80.0543 143.325 80.2017 144.071 80.2017 144.93C80.2017 145.797 80.0543 146.548 79.7596 147.184C79.4648 147.816 79.0565 148.306 78.5344 148.654C78.0124 148.998 77.4105 149.17 76.7287 149.17C76.2031 149.17 75.7823 149.083 75.4663 148.909C75.1502 148.732 74.907 148.531 74.7365 148.308C74.5661 148.08 74.4347 147.892 74.3423 147.743H74.2358V152.068H72.9787ZM74.2145 144.909C74.2145 145.527 74.305 146.072 74.4862 146.544C74.6673 147.013 74.9318 147.381 75.2798 147.647C75.6278 147.91 76.054 148.041 76.5582 148.041C77.0838 148.041 77.5224 147.903 77.8739 147.626C78.229 147.345 78.4954 146.969 78.6729 146.496C78.854 146.021 78.9446 145.491 78.9446 144.909C78.9446 144.334 78.8558 143.815 78.6783 143.354C78.5043 142.888 78.2397 142.521 77.8846 142.251C77.533 141.978 77.0909 141.841 76.5582 141.841C76.0469 141.841 75.6172 141.971 75.2692 142.23C74.9212 142.485 74.6584 142.844 74.4808 143.306C74.3033 143.764 74.2145 144.298 74.2145 144.909ZM82.1193 152.068V140.818H83.3338V142.118H83.483C83.5753 141.976 83.7031 141.795 83.8665 141.575C84.0334 141.351 84.2713 141.152 84.5803 140.978C84.8928 140.8 85.3153 140.712 85.848 140.712C86.5369 140.712 87.1442 140.884 87.6697 141.228C88.1953 141.573 88.6055 142.061 88.9002 142.693C89.195 143.325 89.3423 144.071 89.3423 144.93C89.3423 145.797 89.195 146.548 88.9002 147.184C88.6055 147.816 88.1971 148.306 87.6751 148.654C87.1531 148.998 86.5511 149.17 85.8693 149.17C85.3438 149.17 84.9229 149.083 84.6069 148.909C84.2908 148.732 84.0476 148.531 83.8771 148.308C83.7067 148.08 83.5753 147.892 83.483 147.743H83.3764V152.068H82.1193ZM83.3551 144.909C83.3551 145.527 83.4457 146.072 83.6268 146.544C83.8079 147.013 84.0724 147.381 84.4205 147.647C84.7685 147.91 85.1946 148.041 85.6989 148.041C86.2244 148.041 86.663 147.903 87.0146 147.626C87.3697 147.345 87.636 146.969 87.8136 146.496C87.9947 146.021 88.0852 145.491 88.0852 144.909C88.0852 144.334 87.9964 143.815 87.8189 143.354C87.6449 142.888 87.3803 142.521 87.0252 142.251C86.6737 141.978 86.2315 141.841 85.6989 141.841C85.1875 141.841 84.7578 141.971 84.4098 142.23C84.0618 142.485 83.799 142.844 83.6214 143.306C83.4439 143.764 83.3551 144.298 83.3551 144.909ZM94.6903 149.17C93.902 149.17 93.2219 148.996 92.6502 148.648C92.082 148.297 91.6435 147.807 91.3345 147.178C91.0291 146.546 90.8764 145.811 90.8764 144.973C90.8764 144.135 91.0291 143.396 91.3345 142.757C91.6435 142.114 92.0732 141.614 92.6236 141.255C93.1776 140.893 93.8239 140.712 94.5625 140.712C94.9886 140.712 95.4094 140.783 95.8249 140.925C96.2404 141.067 96.6186 141.298 96.9595 141.617C97.3004 141.933 97.5721 142.352 97.7745 142.874C97.9769 143.396 98.0781 144.039 98.0781 144.803V145.335H91.7713V144.249H96.7997C96.7997 143.787 96.7074 143.375 96.5227 143.013C96.3416 142.651 96.0824 142.365 95.745 142.155C95.4112 141.946 95.017 141.841 94.5625 141.841C94.0618 141.841 93.6286 141.965 93.2628 142.214C92.9006 142.459 92.6218 142.778 92.4265 143.173C92.2312 143.567 92.1335 143.989 92.1335 144.44V145.165C92.1335 145.783 92.2401 146.306 92.4531 146.736C92.6697 147.162 92.9698 147.487 93.3533 147.711C93.7369 147.931 94.1825 148.041 94.6903 148.041C95.0206 148.041 95.3189 147.995 95.5852 147.903C95.8551 147.807 96.0877 147.665 96.283 147.477C96.4783 147.285 96.6293 147.047 96.7358 146.763L97.9503 147.104C97.8224 147.516 97.6076 147.878 97.3058 148.19C97.0039 148.499 96.631 148.741 96.1871 148.915C95.7433 149.085 95.2443 149.17 94.6903 149.17ZM103.549 140.818V141.884H99.3086V140.818H103.549ZM100.544 138.858H101.801V146.656C101.801 147.011 101.853 147.278 101.956 147.455C102.063 147.629 102.197 147.746 102.361 147.807C102.528 147.864 102.703 147.892 102.888 147.892C103.027 147.892 103.14 147.885 103.229 147.871C103.318 147.853 103.389 147.839 103.442 147.828L103.698 148.957C103.613 148.989 103.494 149.021 103.341 149.053C103.188 149.089 102.995 149.107 102.76 149.107C102.405 149.107 102.057 149.03 101.716 148.877C101.379 148.725 101.098 148.492 100.875 148.18C100.654 147.867 100.544 147.473 100.544 146.997V138.858ZM106.356 149.085C106.093 149.085 105.868 148.991 105.679 148.803C105.491 148.615 105.397 148.389 105.397 148.126C105.397 147.864 105.491 147.638 105.679 147.45C105.868 147.262 106.093 147.168 106.356 147.168C106.619 147.168 106.844 147.262 107.032 147.45C107.221 147.638 107.315 147.864 107.315 148.126C107.315 148.3 107.27 148.46 107.181 148.606C107.096 148.751 106.981 148.869 106.835 148.957C106.693 149.043 106.533 149.085 106.356 149.085ZM106.356 143.013C106.093 143.013 105.868 142.919 105.679 142.73C105.491 142.542 105.397 142.317 105.397 142.054C105.397 141.791 105.491 141.566 105.679 141.377C105.868 141.189 106.093 141.095 106.356 141.095C106.619 141.095 106.844 141.189 107.032 141.377C107.221 141.566 107.315 141.791 107.315 142.054C107.315 142.228 107.27 142.388 107.181 142.533C107.096 142.679 106.981 142.796 106.835 142.885C106.693 142.97 106.533 143.013 106.356 143.013ZM117.262 149.149C116.531 149.149 115.884 149.02 115.323 148.76C114.766 148.498 114.331 148.137 114.018 147.679C113.706 147.217 113.551 146.692 113.555 146.102C113.551 145.641 113.642 145.214 113.827 144.824C114.011 144.43 114.263 144.101 114.583 143.838C114.906 143.572 115.267 143.403 115.664 143.332V143.268C115.142 143.134 114.727 142.841 114.418 142.39C114.109 141.935 113.956 141.418 113.96 140.839C113.956 140.286 114.096 139.79 114.381 139.353C114.665 138.917 115.055 138.572 115.552 138.32C116.053 138.068 116.623 137.942 117.262 137.942C117.894 137.942 118.459 138.068 118.956 138.32C119.453 138.572 119.844 138.917 120.128 139.353C120.416 139.79 120.561 140.286 120.565 140.839C120.561 141.418 120.403 141.935 120.091 142.39C119.782 142.841 119.372 143.134 118.86 143.268V143.332C119.254 143.403 119.61 143.572 119.926 143.838C120.242 144.101 120.494 144.43 120.682 144.824C120.87 145.214 120.966 145.641 120.97 146.102C120.966 146.692 120.806 147.217 120.49 147.679C120.178 148.137 119.743 148.498 119.185 148.76C118.631 149.02 117.99 149.149 117.262 149.149ZM117.262 147.977C117.756 147.977 118.182 147.897 118.541 147.738C118.899 147.578 119.176 147.352 119.372 147.061C119.567 146.77 119.666 146.429 119.67 146.038C119.666 145.626 119.56 145.262 119.35 144.946C119.141 144.63 118.855 144.382 118.493 144.201C118.134 144.02 117.724 143.929 117.262 143.929C116.797 143.929 116.382 144.02 116.016 144.201C115.654 144.382 115.368 144.63 115.158 144.946C114.952 145.262 114.851 145.626 114.855 146.038C114.851 146.429 114.945 146.77 115.137 147.061C115.332 147.352 115.611 147.578 115.973 147.738C116.335 147.897 116.765 147.977 117.262 147.977ZM117.262 142.8C117.653 142.8 117.999 142.722 118.301 142.565C118.606 142.409 118.846 142.191 119.02 141.91C119.194 141.63 119.283 141.301 119.286 140.925C119.283 140.555 119.196 140.234 119.025 139.961C118.855 139.684 118.619 139.471 118.317 139.321C118.015 139.169 117.664 139.092 117.262 139.092C116.854 139.092 116.497 139.169 116.192 139.321C115.886 139.471 115.65 139.684 115.483 139.961C115.316 140.234 115.235 140.555 115.238 140.925C115.235 141.301 115.318 141.63 115.488 141.91C115.662 142.191 115.902 142.409 116.208 142.565C116.513 142.722 116.865 142.8 117.262 142.8ZM123.949 147.604C123.686 147.604 123.46 147.51 123.272 147.322C123.084 147.134 122.99 146.908 122.99 146.646C122.99 146.383 123.084 146.157 123.272 145.969C123.46 145.781 123.686 145.687 123.949 145.687C124.211 145.687 124.437 145.781 124.625 145.969C124.813 146.157 124.907 146.383 124.907 146.646C124.907 146.82 124.863 146.979 124.774 147.125C124.689 147.271 124.574 147.388 124.428 147.477C124.286 147.562 124.126 147.604 123.949 147.604ZM123.949 142.086C123.686 142.086 123.46 141.992 123.272 141.804C123.084 141.615 122.99 141.39 122.99 141.127C122.99 140.864 123.084 140.639 123.272 140.451C123.46 140.262 123.686 140.168 123.949 140.168C124.211 140.168 124.437 140.262 124.625 140.451C124.813 140.639 124.907 140.864 124.907 141.127C124.907 141.301 124.863 141.461 124.774 141.607C124.689 141.752 124.574 141.869 124.428 141.958C124.286 142.043 124.126 142.086 123.949 142.086ZM130.7 149.149C129.898 149.149 129.214 148.931 128.649 148.494C128.085 148.054 127.653 147.416 127.355 146.582C127.057 145.744 126.908 144.732 126.908 143.545C126.908 142.366 127.057 141.36 127.355 140.525C127.657 139.687 128.09 139.048 128.655 138.608C129.223 138.164 129.905 137.942 130.7 137.942C131.496 137.942 132.176 138.164 132.74 138.608C133.309 139.048 133.742 139.687 134.04 140.525C134.342 141.36 134.493 142.366 134.493 143.545C134.493 144.732 134.344 145.744 134.045 146.582C133.747 147.416 133.316 148.054 132.751 148.494C132.186 148.931 131.503 149.149 130.7 149.149ZM130.7 147.977C131.496 147.977 132.114 147.594 132.554 146.827C132.994 146.06 133.214 144.966 133.214 143.545C133.214 142.601 133.113 141.797 132.911 141.132C132.712 140.468 132.424 139.962 132.048 139.614C131.675 139.266 131.226 139.092 130.7 139.092C129.912 139.092 129.296 139.481 128.852 140.259C128.408 141.033 128.186 142.129 128.186 143.545C128.186 144.49 128.285 145.293 128.484 145.953C128.683 146.614 128.969 147.116 129.342 147.461C129.718 147.805 130.171 147.977 130.7 147.977ZM140.075 149.149C139.273 149.149 138.589 148.931 138.024 148.494C137.46 148.054 137.028 147.416 136.73 146.582C136.432 145.744 136.283 144.732 136.283 143.545C136.283 142.366 136.432 141.36 136.73 140.525C137.032 139.687 137.465 139.048 138.03 138.608C138.598 138.164 139.28 137.942 140.075 137.942C140.871 137.942 141.551 138.164 142.115 138.608C142.684 139.048 143.117 139.687 143.415 140.525C143.717 141.36 143.868 142.366 143.868 143.545C143.868 144.732 143.719 145.744 143.42 146.582C143.122 147.416 142.691 148.054 142.126 148.494C141.561 148.931 140.878 149.149 140.075 149.149ZM140.075 147.977C140.871 147.977 141.489 147.594 141.929 146.827C142.369 146.06 142.589 144.966 142.589 143.545C142.589 142.601 142.488 141.797 142.286 141.132C142.087 140.468 141.799 139.962 141.423 139.614C141.05 139.266 140.601 139.092 140.075 139.092C139.287 139.092 138.671 139.481 138.227 140.259C137.783 141.033 137.561 142.129 137.561 143.545C137.561 144.49 137.66 145.293 137.859 145.953C138.058 146.614 138.344 147.116 138.717 147.461C139.093 147.805 139.546 147.977 140.075 147.977ZM150.601 142.96V144.131H145.828V142.96H150.601ZM156.627 138.091V149H155.306V139.476H155.242L152.578 141.244V139.902L155.306 138.091H156.627ZM159.764 149V148.041L163.365 144.099C163.787 143.638 164.135 143.237 164.409 142.896C164.682 142.551 164.885 142.228 165.016 141.926C165.151 141.621 165.219 141.301 165.219 140.967C165.219 140.584 165.126 140.252 164.942 139.971C164.76 139.691 164.512 139.474 164.196 139.321C163.88 139.169 163.525 139.092 163.131 139.092C162.711 139.092 162.346 139.179 162.033 139.353C161.724 139.524 161.485 139.763 161.314 140.072C161.147 140.381 161.064 140.744 161.064 141.159H159.807C159.807 140.52 159.954 139.959 160.249 139.476C160.544 138.993 160.945 138.616 161.453 138.347C161.964 138.077 162.537 137.942 163.173 137.942C163.812 137.942 164.379 138.077 164.872 138.347C165.366 138.616 165.753 138.98 166.034 139.439C166.314 139.897 166.454 140.406 166.454 140.967C166.454 141.369 166.382 141.761 166.236 142.145C166.094 142.525 165.845 142.949 165.49 143.418C165.139 143.883 164.65 144.451 164.025 145.122L161.575 147.743V147.828H166.646V149H159.764ZM169.784 147.604C169.521 147.604 169.295 147.51 169.107 147.322C168.919 147.134 168.825 146.908 168.825 146.646C168.825 146.383 168.919 146.157 169.107 145.969C169.295 145.781 169.521 145.687 169.784 145.687C170.046 145.687 170.272 145.781 170.46 145.969C170.648 146.157 170.742 146.383 170.742 146.646C170.742 146.82 170.698 146.979 170.609 147.125C170.524 147.271 170.409 147.388 170.263 147.477C170.121 147.562 169.961 147.604 169.784 147.604ZM169.784 142.086C169.521 142.086 169.295 141.992 169.107 141.804C168.919 141.615 168.825 141.39 168.825 141.127C168.825 140.864 168.919 140.639 169.107 140.451C169.295 140.262 169.521 140.168 169.784 140.168C170.046 140.168 170.272 140.262 170.46 140.451C170.648 140.639 170.742 140.864 170.742 141.127C170.742 141.301 170.698 141.461 170.609 141.607C170.524 141.752 170.409 141.869 170.263 141.958C170.121 142.043 169.961 142.086 169.784 142.086ZM176.535 149.149C175.733 149.149 175.049 148.931 174.484 148.494C173.92 148.054 173.488 147.416 173.19 146.582C172.892 145.744 172.743 144.732 172.743 143.545C172.743 142.366 172.892 141.36 173.19 140.525C173.492 139.687 173.925 139.048 174.49 138.608C175.058 138.164 175.74 137.942 176.535 137.942C177.331 137.942 178.011 138.164 178.575 138.608C179.143 139.048 179.577 139.687 179.875 140.525C180.177 141.36 180.328 142.366 180.328 143.545C180.328 144.732 180.179 145.744 179.88 146.582C179.582 147.416 179.151 148.054 178.586 148.494C178.021 148.931 177.338 149.149 176.535 149.149ZM176.535 147.977C177.331 147.977 177.949 147.594 178.389 146.827C178.829 146.06 179.049 144.966 179.049 143.545C179.049 142.601 178.948 141.797 178.746 141.132C178.547 140.468 178.259 139.962 177.883 139.614C177.51 139.266 177.061 139.092 176.535 139.092C175.747 139.092 175.131 139.481 174.687 140.259C174.243 141.033 174.021 142.129 174.021 143.545C174.021 144.49 174.12 145.293 174.319 145.953C174.518 146.614 174.804 147.116 175.177 147.461C175.553 147.805 176.006 147.977 176.535 147.977ZM185.91 149.149C185.108 149.149 184.424 148.931 183.859 148.494C183.295 148.054 182.863 147.416 182.565 146.582C182.267 145.744 182.118 144.732 182.118 143.545C182.118 142.366 182.267 141.36 182.565 140.525C182.867 139.687 183.3 139.048 183.865 138.608C184.433 138.164 185.115 137.942 185.91 137.942C186.706 137.942 187.386 138.164 187.95 138.608C188.518 139.048 188.952 139.687 189.25 140.525C189.552 141.36 189.703 142.366 189.703 143.545C189.703 144.732 189.554 145.744 189.255 146.582C188.957 147.416 188.526 148.054 187.961 148.494C187.396 148.931 186.713 149.149 185.91 149.149ZM185.91 147.977C186.706 147.977 187.324 147.594 187.764 146.827C188.204 146.06 188.424 144.966 188.424 143.545C188.424 142.601 188.323 141.797 188.121 141.132C187.922 140.468 187.634 139.962 187.258 139.614C186.885 139.266 186.436 139.092 185.91 139.092C185.122 139.092 184.506 139.481 184.062 140.259C183.618 141.033 183.396 142.129 183.396 143.545C183.396 144.49 183.495 145.293 183.694 145.953C183.893 146.614 184.179 147.116 184.552 147.461C184.928 147.805 185.381 147.977 185.91 147.977Z" fill="black"/>
<path d="M180 52C180 80.098 155.447 103 125 103C94.5533 103 70 80.098 70 52C70 23.902 94.5533 1 125 1C155.447 1 180 23.902 180 52Z" fill="#EB5732" stroke="white" stroke-width="2"/>
<path d="M116.848 33.0197C116.202 31.494 114.497 30.6819 112.868 31.1167L105.477 33.0854C104.016 33.4791 103 34.7751 103 36.2516C103 56.5453 119.847 73 140.623 73C142.135 73 143.462 72.0075 143.865 70.5802L145.881 63.3618C146.326 61.7704 145.494 60.1053 143.932 59.4736L135.87 56.1925C134.501 55.6348 132.914 56.0203 131.982 57.1441L128.589 61.188C122.677 58.4565 117.89 53.7809 115.093 48.0062L119.233 44.7005C120.384 43.7818 120.779 42.2396 120.208 40.9026L116.848 33.0279V33.0197Z" fill="white"/>
</svg>
