<svg width="250" height="224" viewBox="0 0 250 224" fill="none" xmlns="http://www.w3.org/2000/svg">
<rect y="52" width="250" height="171.795" rx="10" fill="#7D7574"/>
<path d="M91.6122 125V113.364H98.6349V114.614H93.0213V118.545H98.2713V119.795H93.0213V123.75H98.7259V125H91.6122ZM105.993 119.386V120.636H100.902V119.386H105.993ZM108.352 125V116.273H109.648V117.636H109.761C109.943 117.17 110.237 116.809 110.642 116.551C111.047 116.29 111.534 116.159 112.102 116.159C112.678 116.159 113.157 116.29 113.54 116.551C113.926 116.809 114.227 117.17 114.443 117.636H114.534C114.758 117.186 115.093 116.828 115.54 116.562C115.987 116.294 116.523 116.159 117.148 116.159C117.928 116.159 118.566 116.403 119.062 116.892C119.559 117.377 119.807 118.133 119.807 119.159V125H118.466V119.159C118.466 118.515 118.29 118.055 117.938 117.778C117.585 117.502 117.17 117.364 116.693 117.364C116.08 117.364 115.604 117.549 115.267 117.92C114.93 118.288 114.761 118.754 114.761 119.318V125H113.398V119.023C113.398 118.527 113.237 118.127 112.915 117.824C112.593 117.517 112.178 117.364 111.67 117.364C111.322 117.364 110.996 117.456 110.693 117.642C110.394 117.828 110.152 118.085 109.966 118.415C109.784 118.741 109.693 119.117 109.693 119.545V125H108.352ZM124.827 125.205C124.274 125.205 123.772 125.1 123.321 124.892C122.87 124.68 122.512 124.375 122.247 123.977C121.982 123.576 121.849 123.091 121.849 122.523C121.849 122.023 121.948 121.617 122.145 121.307C122.342 120.992 122.605 120.746 122.935 120.568C123.264 120.39 123.628 120.258 124.026 120.17C124.427 120.08 124.83 120.008 125.236 119.955C125.766 119.886 126.196 119.835 126.526 119.801C126.859 119.763 127.101 119.701 127.253 119.614C127.408 119.527 127.486 119.375 127.486 119.159V119.114C127.486 118.553 127.332 118.117 127.026 117.807C126.723 117.496 126.262 117.341 125.645 117.341C125.005 117.341 124.503 117.481 124.139 117.761C123.776 118.042 123.52 118.341 123.372 118.659L122.099 118.205C122.327 117.674 122.63 117.261 123.009 116.966C123.391 116.667 123.808 116.458 124.259 116.341C124.713 116.22 125.16 116.159 125.599 116.159C125.88 116.159 126.202 116.193 126.565 116.261C126.933 116.326 127.287 116.46 127.628 116.665C127.973 116.869 128.259 117.178 128.486 117.591C128.713 118.004 128.827 118.557 128.827 119.25V125H127.486V123.818H127.418C127.327 124.008 127.175 124.21 126.963 124.426C126.751 124.642 126.469 124.826 126.116 124.977C125.764 125.129 125.334 125.205 124.827 125.205ZM125.031 124C125.562 124 126.009 123.896 126.372 123.688C126.74 123.479 127.016 123.21 127.202 122.881C127.391 122.551 127.486 122.205 127.486 121.841V120.614C127.429 120.682 127.304 120.744 127.111 120.801C126.921 120.854 126.702 120.902 126.452 120.943C126.205 120.981 125.965 121.015 125.73 121.045C125.499 121.072 125.312 121.095 125.168 121.114C124.819 121.159 124.493 121.233 124.19 121.335C123.891 121.434 123.649 121.583 123.463 121.784C123.281 121.981 123.19 122.25 123.19 122.591C123.19 123.057 123.363 123.409 123.707 123.648C124.056 123.883 124.497 124 125.031 124ZM131.274 125V116.273H132.615V125H131.274ZM131.956 114.818C131.695 114.818 131.469 114.729 131.28 114.551C131.094 114.373 131.001 114.159 131.001 113.909C131.001 113.659 131.094 113.445 131.28 113.267C131.469 113.089 131.695 113 131.956 113C132.217 113 132.441 113.089 132.626 113.267C132.816 113.445 132.911 113.659 132.911 113.909C132.911 114.159 132.816 114.373 132.626 114.551C132.441 114.729 132.217 114.818 131.956 114.818ZM136.412 113.364V125H135.071V113.364H136.412ZM148.868 121.432V116.273H150.209V125H148.868V123.523H148.777C148.572 123.966 148.254 124.343 147.822 124.653C147.391 124.96 146.845 125.114 146.186 125.114C145.641 125.114 145.156 124.994 144.732 124.756C144.307 124.513 143.974 124.15 143.732 123.665C143.489 123.176 143.368 122.561 143.368 121.818V116.273H144.709V121.727C144.709 122.364 144.887 122.871 145.243 123.25C145.603 123.629 146.061 123.818 146.618 123.818C146.951 123.818 147.29 123.733 147.635 123.562C147.983 123.392 148.275 123.131 148.51 122.778C148.749 122.426 148.868 121.977 148.868 121.432ZM158.847 118.227L157.642 118.568C157.566 118.367 157.455 118.172 157.307 117.983C157.163 117.79 156.966 117.631 156.716 117.506C156.466 117.381 156.146 117.318 155.756 117.318C155.222 117.318 154.777 117.441 154.42 117.688C154.068 117.93 153.892 118.239 153.892 118.614C153.892 118.947 154.013 119.21 154.256 119.403C154.498 119.597 154.877 119.758 155.392 119.886L156.688 120.205C157.468 120.394 158.049 120.684 158.432 121.074C158.814 121.46 159.006 121.958 159.006 122.568C159.006 123.068 158.862 123.515 158.574 123.909C158.29 124.303 157.892 124.614 157.381 124.841C156.869 125.068 156.275 125.182 155.597 125.182C154.706 125.182 153.97 124.989 153.386 124.602C152.803 124.216 152.434 123.652 152.278 122.909L153.551 122.591C153.672 123.061 153.902 123.413 154.239 123.648C154.58 123.883 155.025 124 155.574 124C156.199 124 156.695 123.867 157.062 123.602C157.434 123.333 157.619 123.011 157.619 122.636C157.619 122.333 157.513 122.08 157.301 121.875C157.089 121.667 156.763 121.511 156.324 121.409L154.869 121.068C154.07 120.879 153.483 120.585 153.108 120.188C152.737 119.786 152.551 119.284 152.551 118.682C152.551 118.189 152.689 117.754 152.966 117.375C153.246 116.996 153.627 116.699 154.108 116.483C154.593 116.267 155.142 116.159 155.756 116.159C156.619 116.159 157.297 116.348 157.79 116.727C158.286 117.106 158.638 117.606 158.847 118.227Z" fill="white"/>
<path d="M30.0618 141.273C29.9936 140.697 29.7171 140.25 29.2322 139.932C28.7474 139.614 28.1527 139.455 27.4482 139.455C26.933 139.455 26.4822 139.538 26.0959 139.705C25.7133 139.871 25.4141 140.1 25.1982 140.392C24.986 140.684 24.88 141.015 24.88 141.386C24.88 141.697 24.9538 141.964 25.1016 142.188C25.2531 142.407 25.4463 142.591 25.6811 142.739C25.916 142.883 26.1622 143.002 26.4197 143.097C26.6773 143.187 26.9141 143.261 27.13 143.318L28.3118 143.636C28.6148 143.716 28.9519 143.826 29.3232 143.966C29.6982 144.106 30.0561 144.297 30.397 144.54C30.7417 144.778 31.0258 145.085 31.2493 145.46C31.4728 145.835 31.5845 146.295 31.5845 146.841C31.5845 147.47 31.4197 148.038 31.0902 148.545C30.7644 149.053 30.2872 149.456 29.6584 149.756C29.0334 150.055 28.2739 150.205 27.38 150.205C26.5466 150.205 25.825 150.07 25.2152 149.801C24.6091 149.532 24.1319 149.157 23.7834 148.676C23.4387 148.195 23.2436 147.636 23.1982 147H24.6527C24.6906 147.439 24.8383 147.803 25.0959 148.091C25.3572 148.375 25.6868 148.587 26.0845 148.727C26.486 148.864 26.9179 148.932 27.38 148.932C27.9179 148.932 28.4008 148.845 28.8288 148.67C29.2569 148.492 29.5959 148.246 29.8459 147.932C30.0959 147.614 30.2209 147.242 30.2209 146.818C30.2209 146.432 30.1129 146.117 29.897 145.875C29.6811 145.633 29.397 145.436 29.0447 145.284C28.6925 145.133 28.3118 145 27.9027 144.886L26.4709 144.477C25.5618 144.216 24.8421 143.843 24.3118 143.358C23.7815 142.873 23.5163 142.239 23.5163 141.455C23.5163 140.803 23.6925 140.235 24.0447 139.75C24.4008 139.261 24.8781 138.883 25.4766 138.614C26.0788 138.341 26.7512 138.205 27.4936 138.205C28.2436 138.205 28.9103 138.339 29.4936 138.608C30.0769 138.873 30.5391 139.237 30.88 139.699C31.2247 140.161 31.4065 140.686 31.4254 141.273H30.0618ZM40.8558 141.273L37.6286 150H36.2649L33.0376 141.273H34.4922L36.9013 148.227H36.9922L39.4013 141.273H40.8558ZM44.9283 150.205C44.3752 150.205 43.8733 150.1 43.4226 149.892C42.9718 149.68 42.6139 149.375 42.3487 148.977C42.0836 148.576 41.951 148.091 41.951 147.523C41.951 147.023 42.0495 146.617 42.2464 146.307C42.4434 145.992 42.7067 145.746 43.0362 145.568C43.3658 145.39 43.7294 145.258 44.1271 145.17C44.5286 145.08 44.9321 145.008 45.3374 144.955C45.8677 144.886 46.2976 144.835 46.6271 144.801C46.9605 144.763 47.2029 144.701 47.3544 144.614C47.5097 144.527 47.5874 144.375 47.5874 144.159V144.114C47.5874 143.553 47.4339 143.117 47.1271 142.807C46.8241 142.496 46.3639 142.341 45.7464 142.341C45.1063 142.341 44.6044 142.481 44.2408 142.761C43.8771 143.042 43.6214 143.341 43.4737 143.659L42.201 143.205C42.4283 142.674 42.7313 142.261 43.1101 141.966C43.4927 141.667 43.9093 141.458 44.3601 141.341C44.8146 141.22 45.2616 141.159 45.701 141.159C45.9813 141.159 46.3033 141.193 46.6669 141.261C47.0343 141.326 47.3885 141.46 47.7294 141.665C48.0741 141.869 48.3601 142.178 48.5874 142.591C48.8146 143.004 48.9283 143.557 48.9283 144.25V150H47.5874V148.818H47.5192C47.4283 149.008 47.2768 149.21 47.0646 149.426C46.8525 149.642 46.5703 149.826 46.218 149.977C45.8658 150.129 45.4358 150.205 44.9283 150.205ZM45.1328 149C45.6631 149 46.1101 148.896 46.4737 148.688C46.8411 148.479 47.1177 148.21 47.3033 147.881C47.4927 147.551 47.5874 147.205 47.5874 146.841V145.614C47.5305 145.682 47.4055 145.744 47.2124 145.801C47.023 145.854 46.8033 145.902 46.5533 145.943C46.3071 145.981 46.0665 146.015 45.8317 146.045C45.6006 146.072 45.4131 146.095 45.2692 146.114C44.9207 146.159 44.5949 146.233 44.2919 146.335C43.9927 146.434 43.7502 146.583 43.5646 146.784C43.3828 146.981 43.2919 147.25 43.2919 147.591C43.2919 148.057 43.4643 148.409 43.8089 148.648C44.1574 148.883 44.5987 149 45.1328 149ZM51.3757 150V141.273H52.6712V142.591H52.7621C52.9212 142.159 53.209 141.809 53.6257 141.54C54.0424 141.271 54.5121 141.136 55.0348 141.136C55.1333 141.136 55.2564 141.138 55.4041 141.142C55.5518 141.146 55.6636 141.152 55.7393 141.159V142.523C55.6939 142.511 55.5897 142.494 55.4268 142.472C55.2678 142.445 55.0992 142.432 54.9212 142.432C54.4969 142.432 54.1181 142.521 53.7848 142.699C53.4553 142.873 53.1939 143.116 53.0007 143.426C52.8113 143.733 52.7166 144.083 52.7166 144.477V150H51.3757ZM59.897 150.205C59.344 150.205 58.8421 150.1 58.3913 149.892C57.9406 149.68 57.5826 149.375 57.3175 148.977C57.0523 148.576 56.9197 148.091 56.9197 147.523C56.9197 147.023 57.0182 146.617 57.2152 146.307C57.4122 145.992 57.6754 145.746 58.005 145.568C58.3345 145.39 58.6982 145.258 59.0959 145.17C59.4974 145.08 59.9008 145.008 60.3061 144.955C60.8364 144.886 61.2663 144.835 61.5959 144.801C61.9292 144.763 62.1716 144.701 62.3232 144.614C62.4785 144.527 62.5561 144.375 62.5561 144.159V144.114C62.5561 143.553 62.4027 143.117 62.0959 142.807C61.7929 142.496 61.3326 142.341 60.7152 142.341C60.075 142.341 59.5732 142.481 59.2095 142.761C58.8459 143.042 58.5902 143.341 58.4425 143.659L57.1697 143.205C57.397 142.674 57.7 142.261 58.0788 141.966C58.4614 141.667 58.8781 141.458 59.3288 141.341C59.7834 141.22 60.2304 141.159 60.6697 141.159C60.95 141.159 61.272 141.193 61.6357 141.261C62.0031 141.326 62.3572 141.46 62.6982 141.665C63.0429 141.869 63.3288 142.178 63.5561 142.591C63.7834 143.004 63.897 143.557 63.897 144.25V150H62.5561V148.818H62.4879C62.397 149.008 62.2455 149.21 62.0334 149.426C61.8213 149.642 61.5391 149.826 61.1868 149.977C60.8345 150.129 60.4046 150.205 59.897 150.205ZM60.1016 149C60.6319 149 61.0788 148.896 61.4425 148.688C61.8099 148.479 62.0864 148.21 62.272 147.881C62.4614 147.551 62.5561 147.205 62.5561 146.841V145.614C62.4993 145.682 62.3743 145.744 62.1811 145.801C61.9917 145.854 61.772 145.902 61.522 145.943C61.2758 145.981 61.0353 146.015 60.8004 146.045C60.5694 146.072 60.3819 146.095 60.2379 146.114C59.8894 146.159 59.5637 146.233 59.2607 146.335C58.9614 146.434 58.719 146.583 58.5334 146.784C58.3516 146.981 58.2607 147.25 58.2607 147.591C58.2607 148.057 58.433 148.409 58.7777 148.648C59.1262 148.883 59.5675 149 60.1016 149ZM70.8445 150V141.273H72.1399V142.636H72.2536C72.4354 142.17 72.7289 141.809 73.1342 141.551C73.5395 141.29 74.0263 141.159 74.5945 141.159C75.1702 141.159 75.6494 141.29 76.032 141.551C76.4183 141.809 76.7195 142.17 76.9354 142.636H77.0263C77.2498 142.186 77.585 141.828 78.032 141.562C78.4789 141.294 79.0149 141.159 79.6399 141.159C80.4202 141.159 81.0585 141.403 81.5547 141.892C82.0509 142.377 82.299 143.133 82.299 144.159V150H80.9581V144.159C80.9581 143.515 80.782 143.055 80.4297 142.778C80.0774 142.502 79.6626 142.364 79.1854 142.364C78.5717 142.364 78.0964 142.549 77.7592 142.92C77.4221 143.288 77.2536 143.754 77.2536 144.318V150H75.8899V144.023C75.8899 143.527 75.7289 143.127 75.407 142.824C75.085 142.517 74.6702 142.364 74.1626 142.364C73.8142 142.364 73.4884 142.456 73.1854 142.642C72.8861 142.828 72.6437 143.085 72.4581 143.415C72.2763 143.741 72.1854 144.117 72.1854 144.545V150H70.8445ZM88.4098 150.182C87.5689 150.182 86.8435 149.996 86.2337 149.625C85.6276 149.25 85.1598 148.727 84.8303 148.057C84.5045 147.383 84.3416 146.598 84.3416 145.705C84.3416 144.811 84.5045 144.023 84.8303 143.341C85.1598 142.655 85.6181 142.121 86.2053 141.739C86.7962 141.352 87.4856 141.159 88.2734 141.159C88.728 141.159 89.1768 141.235 89.62 141.386C90.0632 141.538 90.4666 141.784 90.8303 142.125C91.1939 142.462 91.4837 142.909 91.6996 143.466C91.9155 144.023 92.0234 144.708 92.0234 145.523V146.091H85.2962V144.932H90.6598C90.6598 144.439 90.5613 144 90.3643 143.614C90.1712 143.227 89.8946 142.922 89.5348 142.699C89.1787 142.475 88.7583 142.364 88.2734 142.364C87.7393 142.364 87.2772 142.496 86.8871 142.761C86.5007 143.023 86.2034 143.364 85.995 143.784C85.7867 144.205 85.6825 144.655 85.6825 145.136V145.909C85.6825 146.568 85.7962 147.127 86.0234 147.585C86.2545 148.04 86.5746 148.386 86.9837 148.625C87.3928 148.86 87.8681 148.977 88.4098 148.977C88.7621 148.977 89.0803 148.928 89.3643 148.83C89.6522 148.727 89.9003 148.576 90.1087 148.375C90.317 148.17 90.478 147.917 90.5916 147.614L91.8871 147.977C91.7507 148.417 91.5215 148.803 91.1996 149.136C90.8776 149.466 90.4799 149.723 90.0064 149.909C89.5329 150.091 89.0007 150.182 88.4098 150.182ZM95.4041 138.364V150H94.0632V138.364H95.4041ZM99.201 138.364V150H97.8601V138.364H99.201ZM104.225 150.205C103.672 150.205 103.17 150.1 102.719 149.892C102.269 149.68 101.911 149.375 101.646 148.977C101.38 148.576 101.248 148.091 101.248 147.523C101.248 147.023 101.346 146.617 101.543 146.307C101.74 145.992 102.004 145.746 102.333 145.568C102.663 145.39 103.026 145.258 103.424 145.17C103.826 145.08 104.229 145.008 104.634 144.955C105.165 144.886 105.594 144.835 105.924 144.801C106.257 144.763 106.5 144.701 106.651 144.614C106.807 144.527 106.884 144.375 106.884 144.159V144.114C106.884 143.553 106.731 143.117 106.424 142.807C106.121 142.496 105.661 142.341 105.043 142.341C104.403 142.341 103.901 142.481 103.538 142.761C103.174 143.042 102.918 143.341 102.771 143.659L101.498 143.205C101.725 142.674 102.028 142.261 102.407 141.966C102.79 141.667 103.206 141.458 103.657 141.341C104.112 141.22 104.558 141.159 104.998 141.159C105.278 141.159 105.6 141.193 105.964 141.261C106.331 141.326 106.685 141.46 107.026 141.665C107.371 141.869 107.657 142.178 107.884 142.591C108.112 143.004 108.225 143.557 108.225 144.25V150H106.884V148.818H106.816C106.725 149.008 106.574 149.21 106.362 149.426C106.149 149.642 105.867 149.826 105.515 149.977C105.163 150.129 104.733 150.205 104.225 150.205ZM104.43 149C104.96 149 105.407 148.896 105.771 148.688C106.138 148.479 106.415 148.21 106.6 147.881C106.79 147.551 106.884 147.205 106.884 146.841V145.614C106.827 145.682 106.702 145.744 106.509 145.801C106.32 145.854 106.1 145.902 105.85 145.943C105.604 145.981 105.363 146.015 105.129 146.045C104.897 146.072 104.71 146.095 104.566 146.114C104.218 146.159 103.892 146.233 103.589 146.335C103.29 146.434 103.047 146.583 102.862 146.784C102.68 146.981 102.589 147.25 102.589 147.591C102.589 148.057 102.761 148.409 103.106 148.648C103.454 148.883 103.896 149 104.43 149ZM112.013 144.75V150H110.673V141.273H111.968V142.636H112.082C112.286 142.193 112.597 141.837 113.013 141.568C113.43 141.295 113.968 141.159 114.627 141.159C115.218 141.159 115.735 141.28 116.178 141.523C116.621 141.761 116.966 142.125 117.212 142.614C117.459 143.098 117.582 143.712 117.582 144.455V150H116.241V144.545C116.241 143.86 116.063 143.326 115.707 142.943C115.351 142.557 114.862 142.364 114.241 142.364C113.813 142.364 113.43 142.456 113.093 142.642C112.76 142.828 112.496 143.098 112.303 143.455C112.11 143.811 112.013 144.242 112.013 144.75ZM121.009 150.091C120.729 150.091 120.488 149.991 120.288 149.79C120.087 149.589 119.987 149.348 119.987 149.068C119.987 148.788 120.087 148.547 120.288 148.347C120.488 148.146 120.729 148.045 121.009 148.045C121.29 148.045 121.53 148.146 121.731 148.347C121.932 148.547 122.032 148.788 122.032 149.068C122.032 149.254 121.985 149.424 121.89 149.58C121.799 149.735 121.676 149.86 121.521 149.955C121.369 150.045 121.199 150.091 121.009 150.091ZM121.009 143.614C120.729 143.614 120.488 143.513 120.288 143.312C120.087 143.112 119.987 142.871 119.987 142.591C119.987 142.311 120.087 142.07 120.288 141.869C120.488 141.669 120.729 141.568 121.009 141.568C121.29 141.568 121.53 141.669 121.731 141.869C121.932 142.07 122.032 142.311 122.032 142.591C122.032 142.777 121.985 142.947 121.89 143.102C121.799 143.258 121.676 143.383 121.521 143.477C121.369 143.568 121.199 143.614 121.009 143.614ZM133.006 138.364V150H131.597V139.841H131.529L128.688 141.727V140.295L131.597 138.364H133.006ZM136.353 150V148.977L140.194 144.773C140.645 144.28 141.016 143.852 141.308 143.489C141.599 143.121 141.815 142.777 141.955 142.455C142.099 142.129 142.171 141.788 142.171 141.432C142.171 141.023 142.073 140.669 141.876 140.369C141.683 140.07 141.417 139.839 141.08 139.676C140.743 139.513 140.364 139.432 139.944 139.432C139.497 139.432 139.107 139.525 138.773 139.71C138.444 139.892 138.188 140.148 138.006 140.477C137.828 140.807 137.739 141.193 137.739 141.636H136.398C136.398 140.955 136.556 140.356 136.87 139.841C137.184 139.326 137.612 138.924 138.154 138.636C138.7 138.348 139.311 138.205 139.989 138.205C140.671 138.205 141.275 138.348 141.802 138.636C142.328 138.924 142.741 139.312 143.04 139.801C143.34 140.29 143.489 140.833 143.489 141.432C143.489 141.86 143.412 142.278 143.256 142.688C143.105 143.093 142.84 143.545 142.461 144.045C142.086 144.542 141.565 145.148 140.898 145.864L138.285 148.659V148.75H143.694V150H136.353ZM147.04 148.511C146.76 148.511 146.52 148.411 146.319 148.21C146.118 148.009 146.018 147.769 146.018 147.489C146.018 147.208 146.118 146.968 146.319 146.767C146.52 146.566 146.76 146.466 147.04 146.466C147.321 146.466 147.561 146.566 147.762 146.767C147.963 146.968 148.063 147.208 148.063 147.489C148.063 147.674 148.016 147.845 147.921 148C147.83 148.155 147.707 148.28 147.552 148.375C147.4 148.466 147.23 148.511 147.04 148.511ZM147.04 142.625C146.76 142.625 146.52 142.525 146.319 142.324C146.118 142.123 146.018 141.883 146.018 141.602C146.018 141.322 146.118 141.081 146.319 140.881C146.52 140.68 146.76 140.58 147.04 140.58C147.321 140.58 147.561 140.68 147.762 140.881C147.963 141.081 148.063 141.322 148.063 141.602C148.063 141.788 148.016 141.958 147.921 142.114C147.83 142.269 147.707 142.394 147.552 142.489C147.4 142.58 147.23 142.625 147.04 142.625ZM154.242 150.159C153.386 150.159 152.657 149.926 152.055 149.46C151.452 148.991 150.992 148.311 150.674 147.42C150.356 146.527 150.197 145.447 150.197 144.182C150.197 142.924 150.356 141.85 150.674 140.96C150.996 140.066 151.458 139.384 152.06 138.915C152.666 138.441 153.394 138.205 154.242 138.205C155.091 138.205 155.816 138.441 156.418 138.915C157.024 139.384 157.487 140.066 157.805 140.96C158.127 141.85 158.288 142.924 158.288 144.182C158.288 145.447 158.129 146.527 157.81 147.42C157.492 148.311 157.032 148.991 156.43 149.46C155.827 149.926 155.098 150.159 154.242 150.159ZM154.242 148.909C155.091 148.909 155.75 148.5 156.219 147.682C156.689 146.864 156.924 145.697 156.924 144.182C156.924 143.174 156.816 142.316 156.6 141.608C156.388 140.9 156.081 140.36 155.68 139.989C155.282 139.617 154.803 139.432 154.242 139.432C153.401 139.432 152.744 139.847 152.271 140.676C151.797 141.502 151.56 142.67 151.56 144.182C151.56 145.189 151.666 146.045 151.879 146.75C152.091 147.455 152.396 147.991 152.793 148.358C153.195 148.725 153.678 148.909 154.242 148.909ZM164.242 150.159C163.386 150.159 162.657 149.926 162.055 149.46C161.452 148.991 160.992 148.311 160.674 147.42C160.356 146.527 160.197 145.447 160.197 144.182C160.197 142.924 160.356 141.85 160.674 140.96C160.996 140.066 161.458 139.384 162.06 138.915C162.666 138.441 163.394 138.205 164.242 138.205C165.091 138.205 165.816 138.441 166.418 138.915C167.024 139.384 167.487 140.066 167.805 140.96C168.127 141.85 168.288 142.924 168.288 144.182C168.288 145.447 168.129 146.527 167.81 147.42C167.492 148.311 167.032 148.991 166.43 149.46C165.827 149.926 165.098 150.159 164.242 150.159ZM164.242 148.909C165.091 148.909 165.75 148.5 166.219 147.682C166.689 146.864 166.924 145.697 166.924 144.182C166.924 143.174 166.816 142.316 166.6 141.608C166.388 140.9 166.081 140.36 165.68 139.989C165.282 139.617 164.803 139.432 164.242 139.432C163.401 139.432 162.744 139.847 162.271 140.676C161.797 141.502 161.56 142.67 161.56 144.182C161.56 145.189 161.666 146.045 161.879 146.75C162.091 147.455 162.396 147.991 162.793 148.358C163.195 148.725 163.678 148.909 164.242 148.909ZM179.969 143.557V144.807H174.879V143.557H179.969ZM190.897 138.364V150H189.488V139.841H189.42L186.579 141.727V140.295L189.488 138.364H190.897ZM193.971 147.614V146.455L199.085 138.364H199.925V140.159H199.357L195.494 146.273V146.364H202.38V147.614H193.971ZM199.448 150V147.261V146.722V138.364H200.789V150H199.448ZM205.509 148.511C205.229 148.511 204.988 148.411 204.788 148.21C204.587 148.009 204.487 147.769 204.487 147.489C204.487 147.208 204.587 146.968 204.788 146.767C204.988 146.566 205.229 146.466 205.509 146.466C205.79 146.466 206.03 146.566 206.231 146.767C206.432 146.968 206.532 147.208 206.532 147.489C206.532 147.674 206.485 147.845 206.39 148C206.299 148.155 206.176 148.28 206.021 148.375C205.869 148.466 205.699 148.511 205.509 148.511ZM205.509 142.625C205.229 142.625 204.988 142.525 204.788 142.324C204.587 142.123 204.487 141.883 204.487 141.602C204.487 141.322 204.587 141.081 204.788 140.881C204.988 140.68 205.229 140.58 205.509 140.58C205.79 140.58 206.03 140.68 206.231 140.881C206.432 141.081 206.532 141.322 206.532 141.602C206.532 141.788 206.485 141.958 206.39 142.114C206.299 142.269 206.176 142.394 206.021 142.489C205.869 142.58 205.699 142.625 205.509 142.625ZM212.711 150.159C211.855 150.159 211.126 149.926 210.523 149.46C209.921 148.991 209.461 148.311 209.143 147.42C208.825 146.527 208.665 145.447 208.665 144.182C208.665 142.924 208.825 141.85 209.143 140.96C209.465 140.066 209.927 139.384 210.529 138.915C211.135 138.441 211.862 138.205 212.711 138.205C213.559 138.205 214.285 138.441 214.887 138.915C215.493 139.384 215.955 140.066 216.273 140.96C216.595 141.85 216.756 142.924 216.756 144.182C216.756 145.447 216.597 146.527 216.279 147.42C215.961 148.311 215.501 148.991 214.898 149.46C214.296 149.926 213.567 150.159 212.711 150.159ZM212.711 148.909C213.559 148.909 214.219 148.5 214.688 147.682C215.158 146.864 215.393 145.697 215.393 144.182C215.393 143.174 215.285 142.316 215.069 141.608C214.857 140.9 214.55 140.36 214.148 139.989C213.751 139.617 213.272 139.432 212.711 139.432C211.87 139.432 211.213 139.847 210.739 140.676C210.266 141.502 210.029 142.67 210.029 144.182C210.029 145.189 210.135 146.045 210.347 146.75C210.559 147.455 210.864 147.991 211.262 148.358C211.664 148.725 212.147 148.909 212.711 148.909ZM222.711 150.159C221.855 150.159 221.126 149.926 220.523 149.46C219.921 148.991 219.461 148.311 219.143 147.42C218.825 146.527 218.665 145.447 218.665 144.182C218.665 142.924 218.825 141.85 219.143 140.96C219.465 140.066 219.927 139.384 220.529 138.915C221.135 138.441 221.862 138.205 222.711 138.205C223.559 138.205 224.285 138.441 224.887 138.915C225.493 139.384 225.955 140.066 226.273 140.96C226.595 141.85 226.756 142.924 226.756 144.182C226.756 145.447 226.597 146.527 226.279 147.42C225.961 148.311 225.501 148.991 224.898 149.46C224.296 149.926 223.567 150.159 222.711 150.159ZM222.711 148.909C223.559 148.909 224.219 148.5 224.688 147.682C225.158 146.864 225.393 145.697 225.393 144.182C225.393 143.174 225.285 142.316 225.069 141.608C224.857 140.9 224.55 140.36 224.148 139.989C223.751 139.617 223.272 139.432 222.711 139.432C221.87 139.432 221.213 139.847 220.739 140.676C220.266 141.502 220.029 142.67 220.029 144.182C220.029 145.189 220.135 146.045 220.347 146.75C220.559 147.455 220.864 147.991 221.262 148.358C221.664 148.725 222.147 148.909 222.711 148.909Z" fill="white"/>
<path d="M180 52C180 80.098 155.447 103 125 103C94.5533 103 70 80.098 70 52C70 23.902 94.5533 1 125 1C155.447 1 180 23.902 180 52Z" fill="#DD5C5F" stroke="white" stroke-width="2"/>
<path d="M107 36.875C106.175 36.875 105.5 37.6062 105.5 38.5V40.7445L121.672 55.1258C123.613 56.8523 126.397 56.8523 128.338 55.1258L144.5 40.7445V38.5C144.5 37.6062 143.825 36.875 143 36.875H107ZM105.5 47.0516V64.5C105.5 65.3938 106.175 66.125 107 66.125H143C143.825 66.125 144.5 65.3938 144.5 64.5V47.0516L131.188 58.8937C127.587 62.093 122.403 62.093 118.812 58.8937L105.5 47.0516ZM101 38.5C101 34.9148 103.691 32 107 32H143C146.309 32 149 34.9148 149 38.5V64.5C149 68.0852 146.309 71 143 71H107C103.691 71 101 68.0852 101 64.5V38.5Z" fill="white"/>
</svg>
