<svg width="34" height="33" viewBox="0 0 34 33" fill="none" xmlns="http://www.w3.org/2000/svg">
<mask id="mask0_80_619" style="mask-type:alpha" maskUnits="userSpaceOnUse" x="0" y="0" width="34" height="33">
<path d="M4.91081 0C2.25551 0 0.0966797 2.11406 0.0966797 4.71429V28.2857C0.0966797 30.8859 2.25551 33 4.91081 33H12.2975V22.2603H8.32583V16.5H12.2975V14.0176C12.2975 7.60179 15.2612 4.62589 21.7001 4.62589C22.9186 4.62589 25.0248 4.86161 25.8899 5.09732V10.3125C25.4385 10.2683 24.6487 10.2388 23.6633 10.2388C20.5041 10.2388 19.2855 11.41 19.2855 14.4522V16.5H25.5739L24.4908 22.2603H19.278V33H28.9814C31.6367 33 33.7956 30.8859 33.7956 28.2857V4.71429C33.7956 2.11406 31.6367 0 28.9814 0H4.91081Z" fill="#1E3050"/>
</mask>
<g mask="url(#mask0_80_619)">
<rect x="-2.65424" y="-2.0625" width="39.8885" height="37.125" fill="white"/>
</g>
</svg>
