<svg width="36" height="33" viewBox="0 0 36 33" fill="none" xmlns="http://www.w3.org/2000/svg">
<mask id="mask0_80_616" style="mask-type:alpha" maskUnits="userSpaceOnUse" x="0" y="0" width="36" height="33">
<path d="M5.80459 0C3.0951 0 0.892212 2.11406 0.892212 4.71429V28.2857C0.892212 30.8859 3.0951 33 5.80459 33H30.3665C33.0759 33 35.2788 30.8859 35.2788 28.2857V4.71429C35.2788 2.11406 33.0759 0 30.3665 0H5.80459ZM28.6087 6.1875L20.6415 14.9237L30.0134 26.8125H22.6755L16.9342 19.6011L10.3562 26.8125H6.7103L15.2302 17.465L6.24209 6.1875H13.7642L18.9605 12.7801L24.9628 6.1875H28.6087ZM25.7074 24.7205L12.6666 8.16897H10.4944L23.681 24.7205H25.6997H25.7074Z" fill="#1E3050"/>
</mask>
<g mask="url(#mask0_80_616)">
<rect x="-34.1821" y="-23.375" width="90.7807" height="72.1875" fill="white"/>
</g>
</svg>
