<svg width="35" height="33" viewBox="0 0 35 33" fill="none" xmlns="http://www.w3.org/2000/svg">
<mask id="mask0_80_622" style="mask-type:alpha" maskUnits="userSpaceOnUse" x="0" y="0" width="35" height="33">
<path d="M15.5347 13.2368C15.0877 13.5236 14.7039 13.8921 14.4053 14.3213C14.1066 14.7505 13.899 15.2319 13.7942 15.738C13.5826 16.7603 13.8028 17.8213 14.4064 18.6877C15.01 19.5541 15.9475 20.155 17.0127 20.358C18.0779 20.5611 19.1835 20.3498 20.0864 19.7705C20.9892 19.1913 21.6153 18.2916 21.8269 17.2693C22.0385 16.2471 21.8183 15.1861 21.2147 14.3196C20.6111 13.4532 19.6736 12.8524 18.6084 12.6493C17.5432 12.4463 16.4376 12.6576 15.5347 13.2368ZM26.4571 8.19844C26.058 7.8154 25.5744 7.51339 25.0448 7.31451C23.6555 6.79152 20.6236 6.81362 18.6664 6.83571C18.3517 6.83571 18.06 6.84308 17.8067 6.84308C17.5534 6.84308 17.2541 6.84308 16.9317 6.83571C14.9744 6.81362 11.9579 6.78415 10.5686 7.31451C10.039 7.51339 9.56313 7.8154 9.15633 8.19844C8.74952 8.58147 8.4425 9.04554 8.23526 9.55379C7.69029 10.8871 7.72099 13.804 7.73635 15.6824C7.73635 15.9844 7.74402 16.2643 7.74402 16.5C7.74402 16.7357 7.74402 17.0156 7.73635 17.3176C7.72099 19.196 7.69029 22.1129 8.23526 23.4462C8.4425 23.9545 8.7572 24.4112 9.15633 24.8016C9.55546 25.192 10.039 25.4866 10.5686 25.6855C11.9579 26.2085 14.9898 26.1864 16.947 26.1643C17.2617 26.1643 17.5534 26.1569 17.8067 26.1569C18.06 26.1569 18.3594 26.1569 18.6817 26.1643C20.639 26.1864 23.6555 26.2158 25.0448 25.6855C25.5744 25.4866 26.0503 25.1846 26.4571 24.8016C26.8639 24.4185 27.1709 23.9545 27.3782 23.4462C27.9308 22.1203 27.9001 19.2181 27.8771 17.3324C27.8771 17.023 27.8694 16.7357 27.8694 16.4926C27.8694 16.2496 27.8694 15.9696 27.8771 15.6529C27.9001 13.7746 27.9308 10.8723 27.3782 9.53906C27.1709 9.0308 26.8562 8.57411 26.4571 8.18371V8.19844ZM21.3068 11.4763C22.6951 12.3672 23.6578 13.7508 23.9832 15.3229C24.3085 16.8949 23.9697 18.5266 23.0415 19.8589C22.5818 20.5186 21.9913 21.085 21.3036 21.5257C20.6159 21.9664 19.8444 22.2728 19.0333 22.4274C17.3952 22.7396 15.695 22.4145 14.3066 21.5237C12.9183 20.6338 11.9552 19.2511 11.6291 17.6797C11.3031 16.1084 11.6409 14.4771 12.5681 13.1448C13.4954 11.8124 14.9362 10.8881 16.5736 10.5752C18.2109 10.2623 19.9108 10.5865 21.2991 11.4763H21.3068ZM23.548 11.3806C23.3101 11.2259 23.1182 11.0049 23.0031 10.7471C22.8879 10.4893 22.8649 10.2094 22.9186 9.92946C22.9724 9.64955 23.1182 9.40647 23.3178 9.20759C23.5173 9.00871 23.786 8.87612 24.07 8.82455C24.354 8.77299 24.6533 8.79509 24.922 8.90558C25.1906 9.01607 25.4209 9.19286 25.5821 9.42121C25.7433 9.64955 25.8277 9.9221 25.8277 10.202C25.8277 10.3862 25.7893 10.5703 25.7202 10.7397C25.6512 10.9092 25.536 11.0638 25.4055 11.1964C25.2751 11.329 25.1062 11.4321 24.9297 11.5058C24.7531 11.5795 24.5612 11.6163 24.3693 11.6163C24.0777 11.6163 23.7937 11.5353 23.5557 11.3806H23.548ZM35 4.71429C35 2.11406 32.7971 0 30.0876 0H5.52578C2.8163 0 0.613403 2.11406 0.613403 4.71429V28.2857C0.613403 30.8859 2.8163 33 5.52578 33H30.0876C32.7971 33 35 30.8859 35 28.2857V4.71429ZM28.0152 26.2969C26.5799 27.6743 24.8375 28.1089 22.8726 28.2047C20.8462 28.3152 14.7672 28.3152 12.7408 28.2047C10.7759 28.1089 9.03352 27.6743 7.59818 26.2969C6.16285 24.9194 5.70999 23.2473 5.61788 21.3616C5.50275 19.417 5.50275 13.583 5.61788 11.6384C5.71767 9.75268 6.16285 8.08058 7.59818 6.70313C9.03352 5.32567 10.7836 4.89107 12.7408 4.80268C14.7672 4.69219 20.8462 4.69219 22.8726 4.80268C24.8375 4.89844 26.5799 5.32567 28.0152 6.70313C29.4506 8.08058 29.9034 9.75268 29.9955 11.6384C30.1107 13.5757 30.1107 19.4022 29.9955 21.3542C29.8958 23.24 29.4506 24.9121 28.0152 26.2895V26.2969Z" fill="#1E3050"/>
</mask>
<g mask="url(#mask0_80_622)">
<rect x="-16.5799" y="-13.75" width="83.9034" height="60.5" fill="white"/>
</g>
</svg>
