<svg width="35" height="33" viewBox="0 0 35 33" fill="none" xmlns="http://www.w3.org/2000/svg">
<mask id="mask0_80_613" style="mask-type:alpha" maskUnits="userSpaceOnUse" x="0" y="0" width="35" height="33">
<path d="M34.3866 4.71429C34.3866 2.11406 32.1837 0 29.4742 0H4.91237C2.20289 0 0 2.11406 0 4.71429V28.2857C0 30.8859 2.20289 33 4.91237 33H29.4742C32.1837 33 34.3866 30.8859 34.3866 28.2857V4.71429ZM20.4017 27.6743C20.4017 27.5417 20.4017 27.2324 20.4094 26.8199C20.4171 25.9801 20.4171 24.6984 20.4171 23.6009C20.4171 22.4518 20.0179 21.7225 19.5497 21.3395C22.3897 21.0375 25.3832 20.6618 25.3832 15.9549C25.3832 14.6143 24.8842 13.944 24.0706 13.0821C24.2011 12.7654 24.6386 11.4616 23.9401 9.76741C22.8732 9.45067 20.4324 11.0859 20.4324 11.0859C19.4192 10.8134 18.3216 10.6734 17.2394 10.6734C16.1571 10.6734 15.0595 10.8134 14.0463 11.0859C14.0463 11.0859 11.6055 9.45067 10.5386 9.76741C9.8401 11.4542 10.2699 12.758 10.4081 13.0821C9.59448 13.944 9.2107 14.6143 9.2107 15.9549C9.2107 20.6397 12.0737 21.0375 14.9137 21.3395C14.5452 21.6563 14.2152 22.2013 14.1 22.9821C13.3709 23.2989 11.5057 23.844 10.3927 21.9583C9.69426 20.7944 8.43547 20.6987 8.43547 20.6987C7.19202 20.6839 8.35104 21.45 8.35104 21.45C9.18 21.8183 9.76334 23.2326 9.76334 23.2326C10.5079 25.4203 14.0693 24.6837 14.0693 24.6837C14.0693 25.3467 14.077 26.2821 14.077 26.9377C14.077 27.2913 14.0847 27.5712 14.0847 27.6743C14.0847 27.9911 13.8544 28.3741 13.202 28.2636C8.13612 26.6357 4.59 22.0098 4.59 16.6031C4.59 9.84107 9.97826 4.70692 17.0244 4.70692C24.0706 4.70692 29.7813 9.84107 29.7813 16.6031C29.7889 22.0098 26.3503 26.6431 21.2844 28.2636C20.6396 28.3741 20.4017 27.9911 20.4017 27.6743ZM13.4553 23.6377C13.4399 23.5272 13.5397 23.4315 13.6856 23.402C13.8314 23.3873 13.9696 23.4462 13.9849 23.542C14.0079 23.6377 13.9082 23.7335 13.7546 23.7629C13.6088 23.7924 13.4706 23.7335 13.4553 23.6377ZM12.7568 23.8734C12.588 23.8882 12.4728 23.8071 12.4728 23.6967C12.4728 23.6009 12.588 23.5199 12.7415 23.5199C12.8873 23.5051 13.0255 23.5862 13.0255 23.6967C13.0255 23.7924 12.9103 23.8734 12.7568 23.8734ZM11.6592 23.7114C11.5134 23.6819 11.4136 23.5714 11.4443 23.4757C11.475 23.3799 11.6285 23.3357 11.759 23.3652C11.9125 23.4094 12.0123 23.5199 11.9739 23.6156C11.9432 23.7114 11.7897 23.7556 11.6592 23.7114ZM10.6998 23.1737C10.5846 23.0779 10.5539 22.9379 10.6307 22.8717C10.6998 22.7906 10.8456 22.8054 10.9607 22.9158C11.0605 23.0116 11.0989 23.1589 11.0298 23.2179C10.9607 23.2989 10.8149 23.2842 10.6998 23.1737ZM10.0473 22.4371C9.96291 22.3266 9.96291 22.2013 10.0473 22.1498C10.1318 22.0835 10.2623 22.135 10.3313 22.2455C10.4158 22.356 10.4158 22.4886 10.3313 22.5475C10.2623 22.5917 10.1318 22.5475 10.0473 22.4371ZM9.56378 21.7888C9.47935 21.6931 9.46399 21.5826 9.53307 21.531C9.60215 21.4647 9.71729 21.5016 9.80172 21.5752C9.88615 21.671 9.9015 21.7815 9.83242 21.833C9.76334 21.8993 9.64821 21.8625 9.56378 21.7888ZM9.10324 21.3174C9.00346 21.2732 8.95741 21.1922 8.98811 21.1259C9.01881 21.0817 9.10324 21.0596 9.20302 21.0964C9.30281 21.148 9.34886 21.229 9.31816 21.2879C9.28746 21.3542 9.18767 21.369 9.10324 21.3174Z" fill="#1E3050"/>
</mask>
<g mask="url(#mask0_80_613)">
<rect x="-19.2565" y="-6.1875" width="64.6468" height="51.5625" fill="white"/>
</g>
</svg>
